<svg width="1082" height="1487" viewBox="0 0 1082 1487" fill="none" xmlns="http://www.w3.org/2000/svg">
<g filter="url(#filter0_f_333_55)">
<ellipse cx="562.197" cy="686.46" rx="137.533" ry="346.246" fill="#EEF3E2"/>
</g>
<path d="M287.031 995.153L315.998 1125.62L340.601 1003.23C326.188 1002.33 307.716 999.403 287.031 995.153Z" fill="#95A3A9"/>
<path d="M202.365 883.928C192.522 858.651 263.543 834.157 274.951 850.039C306.005 893.27 208.852 890.079 202.365 883.928Z" fill="#859094"/>
<path d="M306.491 894.217C308.445 890.787 316.072 883.928 330.952 883.928C349.551 883.928 325.952 901.487 306.491 894.217Z" fill="#859094"/>
<path d="M330.952 1203.02L378.854 1215.1L264.854 1152.69C287.875 1166.47 311.067 1183.29 330.952 1203.02Z" fill="#6C7A80"/>
<path d="M786.962 1227.18C803.21 1212.07 823.285 1192.62 844.038 1172.51L844.048 1172.5C844.148 1172.4 844.25 1172.31 844.35 1172.21L844.553 1172.01C844.723 1171.85 844.892 1171.68 845.062 1171.52C846.286 1170.33 847.513 1169.14 848.74 1167.95C859.708 1157.33 870.798 1146.6 881.552 1136.3L756.098 1215.1L786.962 1227.18Z" fill="#6C7A80"/>
<path d="M405.473 1203.02L453.79 1215.1L519.107 1203.02L405.473 1167.95V1185.49V1203.02Z" fill="#8C9BA2"/>
<path d="M642.358 1172.51L659.247 1203.02L681.056 1227.18L725.235 1203.02L683.797 1187.76L642.358 1172.51Z" fill="#8C9BA2"/>
<path d="M287.031 995.153C219.197 981.217 127.56 953.102 77.2114 936.232L141.612 1050.02L176.976 1058.5L274.951 1082L315.998 1125.62L287.031 995.153Z" fill="#8C9BA2"/>
<path d="M994.778 936.232C987.509 945.739 914.698 1003.23 725.235 1026.94C713.394 1028.42 701.839 1029.6 690.563 1030.52L681.056 1136.3C694.925 1128.37 732.482 1112.5 771.762 1112.5C811.041 1112.5 870.594 1082.15 895.461 1066.98L921.073 1050.02L953.061 1030.52C955.411 1012.78 966.016 977.764 989.636 979.554C991.865 963.654 993.617 948.306 994.778 936.232Z" fill="#8C9BA2"/>
<path d="M681.056 1136.3L690.563 1030.52C679.874 1031.39 669.437 1032.02 659.247 1032.43L642.358 1152.69L681.056 1136.3Z" fill="#A5AFB1"/>
<path d="M378.854 1215.1L405.473 1203.02V1185.49L287.031 1136.3L247.102 1112.5L202.365 1094.75L176.976 1058.5L141.612 1050.02L176.976 1112.5C192.291 1117.26 212.755 1125.24 234.911 1136.3C244.663 1141.17 254.742 1146.64 264.854 1152.69L378.854 1215.1Z" fill="#919DA1"/>
<path d="M725.235 1203.02L881.552 1136.3C913.228 1105.97 941.988 1079.38 956.106 1070.3L683.797 1187.76L725.235 1203.02Z" fill="#919CA0"/>
<path d="M725.235 1203.02L756.098 1215.1L881.552 1136.3L725.235 1203.02Z" fill="#5D696D"/>
<path fill-rule="evenodd" clip-rule="evenodd" d="M422.026 1285.94C405.955 1277.31 388.175 1272.62 377.288 1270.98C367.507 1245.5 350.892 1222.8 330.952 1203.02L378.854 1215.1L405.473 1203.02L453.79 1215.1L519.107 1203.02L572.232 1172.51H620.549H642.358L659.247 1203.02L681.056 1227.18L725.235 1203.02L756.098 1215.1L786.962 1227.18C768.057 1244.75 754.33 1256.44 750.735 1256.44C739.103 1256.44 705.774 1266.13 690.563 1270.98L635.312 1308.04L584.088 1316.5L572.232 1335.78H550.311L532.863 1316.5H500.876L422.026 1285.94Z" fill="#6C7A80"/>
<path d="M453.79 1316.5C466.943 1345.67 523.618 1356.62 550.311 1358.44C585.504 1349.94 662.826 1320.55 690.563 1270.98L635.312 1308.04L584.088 1316.5L572.232 1335.78H550.311L532.863 1316.5H500.876L422.026 1285.94C435.509 1293.18 447.789 1303.19 453.79 1316.5Z" fill="#657175"/>
<path d="M214.444 928.106C204.602 902.829 247.102 900.928 264.854 908.757C313.556 930.236 220.931 934.257 214.444 928.106Z" fill="#859094"/>
<path d="M786.962 894.217C777.119 868.94 819.62 867.039 837.372 874.868C886.074 896.347 793.448 900.369 786.962 894.217Z" fill="#859094"/>
<path d="M771.762 928.106C773.715 924.676 781.342 917.816 796.222 917.816C814.822 917.816 791.223 935.376 771.762 928.106Z" fill="#859094"/>
<path fill-rule="evenodd" clip-rule="evenodd" d="M340.601 1003.23C346.608 1003.6 351.91 1003.62 356.374 1003.23C376.333 1001.49 401.707 1005.63 433.109 1011.34C436.355 1011.93 439.666 1012.54 443.041 1013.16L443.048 1013.16L443.051 1013.16C443.072 1013.17 443.093 1013.17 443.114 1013.17C446.885 1013.87 450.737 1014.57 454.671 1015.29C482.369 1020.32 514.139 1025.75 550.311 1029.28C582.956 1032.46 619.187 1034.08 659.247 1032.43L642.358 1152.69L681.056 1136.3C694.925 1128.37 732.482 1112.5 771.762 1112.5C811.041 1112.5 870.594 1082.15 895.461 1066.98L921.073 1050.02L953.061 1030.52C955.411 1012.78 966.016 977.764 989.636 979.554C983.707 1021.83 974.396 1068.02 963.798 1066.98C962.286 1066.83 959.66 1068.01 956.106 1070.3L683.797 1187.76L642.358 1172.51H620.549H572.232L405.473 1167.95V1185.49L287.031 1136.3L247.102 1112.5L202.365 1094.75L176.976 1058.5L274.951 1082L315.998 1125.62L340.601 1003.23Z" fill="#859094"/>
<path d="M519.107 1203.02L572.232 1172.51L405.473 1167.95L519.107 1203.02Z" fill="#95A3A9"/>
<path d="M725.235 1026.94C914.698 1003.23 987.509 945.739 994.778 936.232C996.711 933.705 987.577 916.791 963.798 894.43L921.073 908.757V949.692H837.372L822.986 968.929H699.287L659.247 985.149L590.064 1013.17L550.311 1029.28C582.956 1032.46 619.187 1034.08 659.247 1032.43C669.437 1032.02 679.874 1031.39 690.563 1030.52C701.839 1029.6 713.394 1028.42 725.235 1026.94Z" fill="#B0BAC0"/>
<path d="M433.109 1011.34C436.355 1011.93 439.666 1012.54 443.041 1013.16L443.048 1013.16L443.051 1013.16L443.114 1013.17C446.885 1013.87 450.737 1014.57 454.671 1015.29C482.369 1020.32 514.139 1025.75 550.311 1029.28C533.833 977.808 485.106 874.868 422.026 874.868C358.946 874.868 403.131 965.852 433.109 1011.34Z" fill="#9AA6AA"/>
<path fill-rule="evenodd" clip-rule="evenodd" d="M77.2114 936.232C95.6433 852.573 271 792.438 356.374 772.828C720.778 729.392 898.131 832.68 963.798 894.43L921.073 908.757V949.692H837.372L822.986 968.929H699.287L659.247 985.149L642.358 883.928L572.232 874.868L590.064 1013.17L550.311 1029.28C533.833 977.808 485.106 874.868 422.026 874.868C358.946 874.868 403.131 965.852 433.109 1011.34C401.707 1005.63 376.333 1001.49 356.374 1003.23C351.91 1003.62 346.608 1003.6 340.601 1003.23C326.188 1002.33 307.716 999.403 287.031 995.153C219.197 981.217 127.56 953.102 77.2114 936.232ZM202.365 883.928C192.522 858.651 263.543 834.157 274.951 850.039C306.005 893.27 208.852 890.079 202.365 883.928ZM306.491 894.217C308.445 890.787 316.072 883.928 330.952 883.928C349.551 883.928 325.952 901.487 306.491 894.217Z" fill="#A5AFB1"/>
<path d="M659.247 985.149L642.358 883.928L572.232 874.868L590.064 1013.17L659.247 985.149Z" fill="#9AA5AA"/>
<g filter="url(#filter1_f_333_55)">
<ellipse cx="540.482" cy="799.865" rx="137.533" ry="346.246" fill="#EEF3E2"/>
</g>
<path d="M550.045 583.69C547.055 583.864 543.159 584.615 539.038 586.2C528.576 590.226 516.666 599.633 514.463 618.629C511.408 644.985 508.064 649.513 506.754 648.483C509.363 650.603 511.785 653.504 514.011 656.911C514.488 657.64 514.955 658.393 515.414 659.166C516.988 661.818 518.456 664.711 519.813 667.734C519.992 668.134 520.17 668.537 520.346 668.941C521.822 672.338 523.161 675.877 524.359 679.409C524.507 679.846 524.654 680.284 524.798 680.721C525.635 683.261 526.399 685.788 527.087 688.244C527.193 688.625 527.298 689.004 527.402 689.381C527.608 690.137 527.807 690.884 527.998 691.622C534.974 687.319 538.58 683.776 545.525 674.97L549.18 588.623L550.045 583.69Z" fill="#EEC7A3"/>
<path d="M497.793 1194.01L488.404 1274.18C504.063 1289.37 544.57 1316.9 581.326 1305.57C618.081 1294.23 574.031 1262.47 547.411 1248.01L554.63 1203.61C540.006 1207.55 513.345 1200.03 497.793 1194.01Z" fill="#4C3E3A"/>
<path d="M616.378 1183.51L599.782 1250.23C616.176 1267.22 656.439 1299.51 686.333 1292.68C716.227 1285.85 681.442 1248.13 660.312 1230.12L667.115 1197.79C645.319 1199.22 628.316 1192.21 616.378 1183.51Z" fill="#4C3E3A"/>
<path d="M519.325 561.31C514.946 560.136 510.02 559.965 504.673 560.69C511.405 569.881 523.55 580.991 539.038 586.2C543.159 584.615 547.055 583.864 550.045 583.69C550.138 583.705 550.231 583.72 550.324 583.735C554.85 584.483 558.823 586.177 562.303 588.589C562.425 588.673 562.547 588.759 562.668 588.845C575.829 587.4 590.241 580.937 605.112 566.476C600.187 564.806 595.617 564.057 591.523 564.366C591.008 564.775 590.495 565.175 589.983 565.565C555.284 592.01 528.487 573.885 519.325 561.31Z" fill="#9F6756"/>
<path d="M519.325 561.31L589.983 565.565C555.284 592.01 528.487 573.885 519.325 561.31Z" fill="#E9C09B"/>
<path d="M520.426 535.307L519.325 561.31L589.983 565.565C590.495 565.175 591.008 564.775 591.523 564.366L592.761 535.124C587.544 539.283 581.812 542.148 575.806 543.915C557.663 549.253 537.008 544.577 520.426 535.307Z" fill="#E9C09B"/>
<path d="M628.192 578.977C684.01 618.503 757.191 727.5 733.562 776.678C735.993 719.23 664.329 620.94 628.192 578.977Z" fill="#B47E6E"/>
<path d="M498.275 644.738C480.874 643.252 426.395 671.801 401.33 686.261C423.563 674.791 462.511 656.044 485.71 648.681C485.937 648.609 486.162 648.538 486.385 648.469C493.735 646.176 499.428 645.077 502.39 645.787C501.059 645.218 499.687 644.859 498.275 644.738Z" fill="#956050"/>
<path d="M530.486 702.689L518.765 711.997L518.159 712.479L484.34 739.335C460.553 761.047 439.9 773.077 422.255 778.474C445.861 779.473 500.283 732.197 527.402 705.727C528.474 704.68 529.503 703.666 530.486 702.689Z" fill="#956050"/>
<path d="M663.591 791.854C639.296 779.892 608.227 754.949 569.396 709.644C566.454 706.211 563.467 702.661 560.436 698.991C575.155 724.577 616.393 778.969 663.591 791.854Z" fill="#956050"/>
<path fill-rule="evenodd" clip-rule="evenodd" d="M663.591 791.854C704.816 812.153 726.533 795.074 733.562 776.678C735.993 719.23 664.329 620.94 628.192 578.977C620.005 573.179 612.192 568.876 605.112 566.476C590.241 580.937 575.829 587.4 562.668 588.845C581.537 602.325 585.706 637.079 585.135 655.541C573.379 665.417 565.789 681.684 562.117 693.066C561.413 695.247 560.853 697.248 560.436 698.991C563.467 702.661 566.454 706.211 569.396 709.644C608.227 754.949 639.296 779.892 663.591 791.854ZM596.284 648.886C617.226 641.079 670.688 686.138 694.802 709.644C656.295 676.187 630.053 660.115 612.867 653.642C604.126 650.351 597.727 649.542 593.248 650.193C594.238 649.709 595.25 649.272 596.284 648.886Z" fill="#BB8271"/>
<path d="M694.802 709.644C670.688 686.138 617.226 641.079 596.284 648.886C595.25 649.272 594.238 649.709 593.248 650.193C597.727 649.542 604.126 650.351 612.867 653.642C630.053 660.115 656.295 676.187 694.802 709.644Z" fill="#956050"/>
<path d="M422.255 778.474C421.858 779.476 421.455 780.515 421.048 781.589C436.5 790.868 479.403 788.686 527.402 705.727C500.283 732.197 445.861 779.473 422.255 778.474Z" fill="#AF7C6D"/>
<path d="M560.436 698.991C575.155 724.577 616.393 778.969 663.591 791.854C594.46 788.928 566.016 728.726 560.436 698.991Z" fill="#AF7C6D"/>
<path fill-rule="evenodd" clip-rule="evenodd" d="M530.486 702.689C529.503 703.666 528.474 704.68 527.402 705.727C479.403 788.686 436.5 790.868 421.048 781.589C412.161 805.001 401.121 844.652 406.69 867.961C466.371 872.169 603.195 875.965 673.042 857.486C674.15 844.19 672.064 823.411 663.591 791.854C594.46 788.928 566.016 728.726 560.436 698.991C560.853 697.248 561.413 695.247 562.117 693.066C558.18 692.9 551.034 682.325 547.196 676.15C546.97 675.785 545.725 675.301 545.525 674.97C538.58 683.776 534.974 687.319 527.998 691.622C528.566 693.81 529.07 695.915 529.507 697.895C529.597 698.303 529.684 698.705 529.769 699.102C530.036 700.359 530.276 701.559 530.486 702.689Z" fill="#BB8271"/>
<path d="M417.777 884.264C419.086 884.948 420.735 885.565 422.696 886.119C457.868 896.049 593.246 885.56 659.916 878.679C665.082 879.18 671.635 874.361 673.042 857.486C603.195 875.965 466.371 872.169 406.69 867.961C408.474 875.431 411.964 881.223 417.777 884.264Z" fill="#AF7C6D"/>
<path fill-rule="evenodd" clip-rule="evenodd" d="M422.696 886.119C457.868 896.049 593.246 885.56 659.916 878.679C778.401 891.339 720.55 1095.92 676.814 1196.62C673.482 1197.2 670.249 1197.58 667.115 1197.79C645.319 1199.22 628.316 1192.21 616.378 1183.51C607.429 1176.99 601.327 1169.53 598.186 1163.97C638.538 958.144 619.094 936.73 608.961 925.571C607.824 924.319 606.805 923.196 606 921.956C605.514 920.845 605.052 919.846 604.621 918.967C632.95 998.713 589.986 1134.14 564.964 1191.89C564.689 1198.38 560.694 1201.98 554.63 1203.61C540.006 1207.55 513.345 1200.03 497.793 1194.01C472.532 1190.54 482.08 1081.98 490.011 1028.13C391.692 934.51 410.354 905.382 422.391 886.595L422.696 886.119Z" fill="#859393"/>
<path d="M619.464 995.482C618.024 1029.52 604.679 1121.99 598.186 1163.97C638.538 958.144 619.094 936.73 608.961 925.571C607.824 924.319 606.805 923.196 606 921.956C611.764 935.146 620.793 964.085 619.464 995.482Z" fill="#738077"/>
<path d="M545.525 674.97C545.725 675.301 546.97 675.785 547.196 676.15L550.512 588.797C550.471 588.791 550.05 588.74 550.008 588.735L549.941 588.726C549.905 588.722 549.216 588.628 549.18 588.623L545.525 674.97Z" fill="#DCBA94"/>
<path fill-rule="evenodd" clip-rule="evenodd" d="M562.303 588.589C558.823 586.177 554.85 584.483 550.324 583.735L550.512 588.797L547.196 676.15C551.034 682.325 558.18 692.9 562.117 693.066C565.789 681.684 573.379 665.417 585.135 655.541C585.706 637.079 581.537 602.325 562.668 588.845C562.547 588.759 562.425 588.673 562.303 588.589Z" fill="#EEC7A3"/>
<path d="M550.324 583.735C550.231 583.72 550.138 583.705 550.045 583.69L549.18 588.623C549.216 588.628 549.905 588.722 549.941 588.726L550.008 588.735C550.05 588.74 550.471 588.791 550.512 588.797L550.324 583.735Z" fill="#DCBA94"/>
<path fill-rule="evenodd" clip-rule="evenodd" d="M489.9 490.642C459.519 511.186 433.85 422.595 490.826 468.758C494.939 371.592 575.046 378.205 605.976 419.894C610.414 446.036 610.594 507.439 575.806 543.915C557.663 549.253 537.008 544.577 520.426 535.307C500.165 523.981 485.986 505.797 489.9 490.642Z" fill="#EEC7A3"/>
<path d="M615.311 495.95C646.359 503.916 654.277 451.88 616.478 468.362C620.722 450.119 615.86 433.216 605.976 419.894C610.414 446.036 610.594 507.439 575.806 543.915C581.812 542.148 587.544 539.283 592.761 535.124C602.69 527.207 610.756 514.601 615.311 495.95Z" fill="#EEC7A3"/>
<path d="M527.087 688.244L513.256 696.185C513.388 696.517 513.518 696.85 513.649 697.184L527.402 689.381C527.298 689.004 527.193 688.625 527.087 688.244Z" fill="#956050"/>
<path d="M524.359 679.409L509.378 687.037C509.464 687.226 509.549 687.416 509.634 687.606C509.729 687.818 509.824 688.031 509.919 688.244L524.798 680.721C524.654 680.284 524.507 679.846 524.359 679.409Z" fill="#956050"/>
<path d="M506.754 648.483L491.718 655.541C492.026 655.984 492.34 656.441 492.659 656.911L506.754 648.483Z" fill="#956050"/>
<path d="M514.011 656.911L495.843 661.782C496.319 662.537 496.801 663.315 497.29 664.115L515.414 659.166C514.955 658.393 514.488 657.64 514.011 656.911Z" fill="#956050"/>
<path d="M519.813 667.734L504.082 676.15C504.295 676.559 504.509 676.971 504.722 677.386L520.346 668.941C520.17 668.537 519.992 668.134 519.813 667.734Z" fill="#956050"/>
<path d="M529.507 697.895L517.176 706.967C517.28 707.282 517.384 707.597 517.487 707.912L529.769 699.102C529.684 698.705 529.597 698.303 529.507 697.895Z" fill="#956050"/>
<path fill-rule="evenodd" clip-rule="evenodd" d="M518.765 711.997L530.486 702.689C530.276 701.559 530.036 700.359 529.769 699.102L517.487 707.912C517.925 709.26 518.352 710.622 518.765 711.997ZM518.159 712.479L484.34 739.335C460.553 761.047 439.9 773.077 422.255 778.474C378.31 791.915 353.02 764.207 344.428 742.408C357.667 662.815 451.769 567.867 504.673 560.69C511.405 569.881 523.55 580.991 539.038 586.2C528.576 590.226 516.666 599.633 514.463 618.629C511.408 644.985 508.064 649.513 506.754 648.483L491.718 655.541C489.638 652.55 487.813 650.165 486.385 648.469C493.735 646.176 499.428 645.077 502.39 645.787C501.059 645.218 499.687 644.859 498.275 644.738C480.874 643.252 426.395 671.801 401.33 686.261C423.563 674.791 462.511 656.044 485.71 648.681C494.314 660.733 512.848 690.365 518.159 712.479ZM492.659 656.911L506.754 648.483C509.363 650.603 511.785 653.504 514.011 656.911L495.843 661.782C494.74 660.032 493.673 658.405 492.659 656.911ZM497.29 664.115C499.476 667.698 501.776 671.73 504.082 676.15L519.813 667.734C518.456 664.711 516.988 661.818 515.414 659.166L497.29 664.115ZM504.722 677.386C506.287 680.433 507.85 683.656 509.378 687.037L524.359 679.409C523.161 675.877 521.822 672.338 520.346 668.941L504.722 677.386ZM509.919 688.244L524.798 680.721C525.635 683.261 526.399 685.788 527.087 688.244L513.256 696.185C512.175 693.456 511.058 690.806 509.919 688.244ZM513.649 697.184L527.402 689.381C527.608 690.137 527.807 690.884 527.998 691.622C528.566 693.81 529.07 695.915 529.507 697.895L517.176 706.967C516.065 703.611 514.882 700.346 513.649 697.184Z" fill="#BB8271"/>
<path d="M491.718 655.541C489.638 652.55 487.813 650.165 486.385 648.469C486.162 648.538 485.937 648.609 485.71 648.681C494.314 660.733 512.848 690.365 518.159 712.479L518.765 711.997C518.352 710.622 517.925 709.26 517.487 707.912C517.384 707.597 517.28 707.282 517.176 706.967C516.065 703.611 514.882 700.346 513.649 697.184C513.518 696.85 513.388 696.517 513.256 696.185C512.175 693.456 511.058 690.806 509.919 688.244C509.824 688.031 509.729 687.818 509.634 687.606C509.549 687.416 509.464 687.226 509.378 687.037C507.85 683.656 506.287 680.433 504.722 677.386C504.509 676.971 504.295 676.559 504.082 676.15C501.776 671.73 499.476 667.698 497.29 664.115C496.801 663.315 496.319 662.537 495.843 661.782C494.74 660.032 493.673 658.405 492.659 656.911C492.34 656.441 492.026 655.984 491.718 655.541Z" fill="#956050"/>
<path d="M545.634 519.926C551.209 523.313 563.433 528.056 567.736 519.933" stroke="#883434" stroke-width="3.63352" stroke-linecap="round"/>
<ellipse cx="526.778" cy="457.265" rx="11.754" ry="2.98575" transform="rotate(-11.0191 526.778 457.265)" fill="#493325"/>
<ellipse cx="581.308" cy="458.528" rx="12.8586" ry="2.70595" transform="rotate(10.9941 581.308 458.528)" fill="#493325"/>
<path d="M526.089 474.544C528.346 478.507 534.434 483.599 540.733 472.263" stroke="#493325" stroke-width="3.63352" stroke-linecap="round"/>
<path d="M570.206 474.368C572.079 477.236 577.622 481.492 584.803 475.573" stroke="#493325" stroke-width="3.63352" stroke-linecap="round"/>
<path d="M557.085 488.32C558.948 492.542 561.574 500.871 557.173 500.408" stroke="#A98768" stroke-width="1.81676" stroke-linecap="round"/>
<path d="M484.662 463.892C486.971 471.298 491.606 480.881 491.667 459.973C494.423 457.56 500.08 449.349 500.653 435.807C501.226 422.265 504.944 430.336 506.732 436.064C512.237 439.545 523.473 441.176 524.375 419.853C530.857 429.028 545.506 442.109 552.244 421.033C557.371 441.962 576.834 427.831 587.532 428.284C583.913 448.731 604.568 448.731 604.568 448.731L614.074 459.973C614.788 468.185 615.125 484.835 622.689 465.518C625.4 470.068 631.366 476.528 633.537 465.977C641.207 466.271 654.453 461.878 646.077 441.962C658.649 431.939 666.482 406.101 628.176 404.48C648.308 409.171 647.224 356.418 606.602 382.955C629.87 364.453 581.453 335.229 573.571 362.07C562.228 348.224 537.313 328.457 528.401 360.158C515.78 354.347 491.457 349.826 495.126 378.237C485.431 374.142 468.728 372.398 479.479 398.186C469.967 394.192 460.558 396.766 468.076 417.471C461.714 421.698 452.663 431.003 467.36 434.398C461.028 438.346 453.219 446.841 472.634 449.236C467.918 455.158 463.72 466.379 484.662 463.892Z" fill="url(#paint0_linear_333_55)" stroke="black" stroke-width="0.187208" stroke-linecap="round"/>
<g filter="url(#filter2_f_333_55)">
<ellipse cx="17.9474" cy="45.0397" rx="17.9474" ry="45.0397" transform="matrix(0.941399 -0.337296 0.257386 0.966309 201.201 675.644)" fill="#FEFFFB"/>
</g>
<g filter="url(#filter3_f_333_55)">
<ellipse cx="17.9474" cy="45.0397" rx="17.9474" ry="45.0397" transform="matrix(-0.941399 -0.337296 -0.257386 0.966309 867.227 687.131)" fill="#FEFFFB"/>
</g>
<g filter="url(#filter4_f_333_55)">
<ellipse cx="17.9474" cy="21.4058" rx="17.9474" ry="21.4058" transform="matrix(0.941399 -0.337296 0.257386 0.966309 167.916 588.782)" fill="#FEFFFB"/>
</g>
<g filter="url(#filter5_f_333_55)">
<ellipse cx="17.9474" cy="21.4058" rx="17.9474" ry="21.4058" transform="matrix(-0.941399 -0.337296 -0.257386 0.966309 900.512 600.269)" fill="#FEFFFB"/>
</g>
<g filter="url(#filter6_f_333_55)">
<ellipse cx="17.9474" cy="13.4263" rx="17.9474" ry="13.4263" transform="matrix(0.941399 -0.337296 0.257386 0.966309 200.268 480.203)" fill="#FEFFFB"/>
</g>
<g filter="url(#filter7_f_333_55)">
<ellipse cx="17.9474" cy="13.4263" rx="17.9474" ry="13.4263" transform="matrix(-0.941399 -0.337296 -0.257386 0.966309 868.16 491.69)" fill="#FEFFFB"/>
</g>
<g filter="url(#filter8_f_333_55)">
<ellipse cx="17.9474" cy="8.44517" rx="17.9474" ry="8.44517" transform="matrix(0.941399 -0.337296 0.257386 0.966309 258.176 378.862)" fill="#FEFFFB"/>
</g>
<g filter="url(#filter9_f_333_55)">
<ellipse cx="17.9474" cy="8.44517" rx="17.9474" ry="8.44517" transform="matrix(-0.941399 -0.337296 -0.257386 0.966309 810.251 390.349)" fill="#FEFFFB"/>
</g>
<g filter="url(#filter10_f_333_55)">
<ellipse cx="17.9474" cy="5.64953" rx="17.9474" ry="5.64953" transform="matrix(0.941399 -0.337296 0.257386 0.966309 353.715 314.292)" fill="#FEFFFB"/>
</g>
<g filter="url(#filter11_f_333_55)">
<ellipse cx="17.9474" cy="5.64953" rx="17.9474" ry="5.64953" transform="matrix(-0.941399 -0.337296 -0.257386 0.966309 714.712 325.779)" fill="#FEFFFB"/>
</g>
<path d="M2.72441 1272.66C13.3829 1302.81 58.0356 1339.86 79.0296 1354.62C94.8199 1357.94 131.514 1362.59 151.97 1354.62L79.0296 1282.41C78.8054 1282.33 78.582 1282.25 78.3594 1282.17C34.5134 1266.41 21.5347 1235.37 21.5654 1216.5C8.85969 1226.86 -6.27925 1247.2 2.72441 1272.66Z" fill="#7F888D"/>
<path fill-rule="evenodd" clip-rule="evenodd" d="M21.5654 1216.5C23.9006 1214.6 26.1536 1213.03 28.1594 1211.84C122.122 1211.84 145.304 1260.67 155.524 1282.2C157.702 1286.79 159.292 1290.13 160.852 1291.5C125.948 1293.46 99.2451 1289.55 79.0296 1282.41C78.8054 1282.33 78.582 1282.25 78.3594 1282.17C34.5134 1266.41 21.5347 1235.37 21.5654 1216.5Z" fill="#A7B0B5"/>
<path d="M151.97 1354.62C177.54 1344.66 169.734 1299.31 160.852 1291.5C125.948 1293.46 99.2451 1289.55 79.0296 1282.41L151.97 1354.62Z" fill="#8C989F"/>
<path d="M937.036 1411.58C931.271 1427.88 907.117 1447.93 895.761 1455.91C887.22 1457.71 867.371 1460.22 856.306 1455.91L895.761 1416.85C895.882 1416.8 896.003 1416.76 896.123 1416.72C919.841 1408.19 926.861 1391.41 926.845 1381.2C933.717 1386.8 941.906 1397.8 937.036 1411.58Z" fill="#7F888D"/>
<path fill-rule="evenodd" clip-rule="evenodd" d="M926.845 1381.2C925.581 1380.17 924.363 1379.32 923.278 1378.67C872.451 1378.67 859.912 1405.09 854.383 1416.73C853.205 1419.22 852.345 1421.03 851.501 1421.77C870.382 1422.83 884.826 1420.71 895.761 1416.85C895.882 1416.8 896.003 1416.76 896.123 1416.72C919.841 1408.19 926.861 1391.41 926.845 1381.2Z" fill="#A7B0B5"/>
<path d="M856.306 1455.91C842.475 1450.52 846.697 1425.99 851.501 1421.77C870.382 1422.83 884.826 1420.71 895.761 1416.85L856.306 1455.91Z" fill="#8C989F"/>
<path d="M1058.14 1208.85C1059.84 1209.86 1061.75 1211.19 1063.73 1212.8C1069.31 1241.52 1001.02 1294.35 991.19 1296.71C983.328 1298.59 962.604 1319.58 953.226 1329.84C950.185 1328.65 947.701 1326.88 945.699 1324.68C951.428 1326.4 965.087 1320.77 973.893 1284.52C982.699 1248.27 1033.73 1218.96 1058.14 1208.85Z" fill="#A7B0B5"/>
<path d="M1079.69 1260.39C1070.66 1285.93 1032.82 1317.33 1015.03 1329.84C1001.65 1332.65 970.559 1336.59 953.226 1329.84C962.604 1319.58 983.328 1298.59 991.19 1296.71C1001.02 1294.35 1069.31 1241.52 1063.73 1212.8C1074.49 1221.57 1087.32 1238.81 1079.69 1260.39Z" fill="#7F888D"/>
<path d="M945.699 1276.35C947.021 1275.19 948.368 1272.36 950.214 1268.47C958.874 1250.22 978.518 1208.85 1058.14 1208.85C1033.73 1218.96 982.699 1248.27 973.893 1284.52C965.087 1320.77 951.428 1326.4 945.699 1324.68C933.433 1311.24 939.229 1282.04 945.699 1276.35Z" fill="#9BAAB3"/>
<defs>
<filter id="filter0_f_333_55" x="84.4502" y="0" width="955.494" height="1372.92" filterUnits="userSpaceOnUse" color-interpolation-filters="sRGB">
<feFlood flood-opacity="0" result="BackgroundImageFix"/>
<feBlend mode="normal" in="SourceGraphic" in2="BackgroundImageFix" result="shape"/>
<feGaussianBlur stdDeviation="170.107" result="effect1_foregroundBlur_333_55"/>
</filter>
<filter id="filter1_f_333_55" x="62.7344" y="113.405" width="955.494" height="1372.92" filterUnits="userSpaceOnUse" color-interpolation-filters="sRGB">
<feFlood flood-opacity="0" result="BackgroundImageFix"/>
<feBlend mode="normal" in="SourceGraphic" in2="BackgroundImageFix" result="shape"/>
<feGaussianBlur stdDeviation="170.107" result="effect1_foregroundBlur_333_55"/>
</filter>
<filter id="filter2_f_333_55" x="163.352" y="623.322" width="132.673" height="179.582" filterUnits="userSpaceOnUse" color-interpolation-filters="sRGB">
<feFlood flood-opacity="0" result="BackgroundImageFix"/>
<feBlend mode="normal" in="SourceGraphic" in2="BackgroundImageFix" result="shape"/>
<feGaussianBlur stdDeviation="22.9222" result="effect1_foregroundBlur_333_55"/>
</filter>
<filter id="filter3_f_333_55" x="772.402" y="634.809" width="132.673" height="179.582" filterUnits="userSpaceOnUse" color-interpolation-filters="sRGB">
<feFlood flood-opacity="0" result="BackgroundImageFix"/>
<feBlend mode="normal" in="SourceGraphic" in2="BackgroundImageFix" result="shape"/>
<feGaussianBlur stdDeviation="22.9222" result="effect1_foregroundBlur_333_55"/>
</filter>
<filter id="filter4_f_333_55" x="126.7" y="536.01" width="127.241" height="134.804" filterUnits="userSpaceOnUse" color-interpolation-filters="sRGB">
<feFlood flood-opacity="0" result="BackgroundImageFix"/>
<feBlend mode="normal" in="SourceGraphic" in2="BackgroundImageFix" result="shape"/>
<feGaussianBlur stdDeviation="22.9222" result="effect1_foregroundBlur_333_55"/>
</filter>
<filter id="filter5_f_333_55" x="814.487" y="547.497" width="127.241" height="134.804" filterUnits="userSpaceOnUse" color-interpolation-filters="sRGB">
<feFlood flood-opacity="0" result="BackgroundImageFix"/>
<feBlend mode="normal" in="SourceGraphic" in2="BackgroundImageFix" result="shape"/>
<feGaussianBlur stdDeviation="22.9222" result="effect1_foregroundBlur_333_55"/>
</filter>
<filter id="filter6_f_333_55" x="157.526" y="426.959" width="126.186" height="120.329" filterUnits="userSpaceOnUse" color-interpolation-filters="sRGB">
<feFlood flood-opacity="0" result="BackgroundImageFix"/>
<feBlend mode="normal" in="SourceGraphic" in2="BackgroundImageFix" result="shape"/>
<feGaussianBlur stdDeviation="22.9222" result="effect1_foregroundBlur_333_55"/>
</filter>
<filter id="filter7_f_333_55" x="784.716" y="438.445" width="126.186" height="120.329" filterUnits="userSpaceOnUse" color-interpolation-filters="sRGB">
<feFlood flood-opacity="0" result="BackgroundImageFix"/>
<feBlend mode="normal" in="SourceGraphic" in2="BackgroundImageFix" result="shape"/>
<feGaussianBlur stdDeviation="22.9222" result="effect1_foregroundBlur_333_55"/>
</filter>
<filter id="filter8_f_333_55" x="214.365" y="324.963" width="125.762" height="112.012" filterUnits="userSpaceOnUse" color-interpolation-filters="sRGB">
<feFlood flood-opacity="0" result="BackgroundImageFix"/>
<feBlend mode="normal" in="SourceGraphic" in2="BackgroundImageFix" result="shape"/>
<feGaussianBlur stdDeviation="22.9222" result="effect1_foregroundBlur_333_55"/>
</filter>
<filter id="filter9_f_333_55" x="728.301" y="336.45" width="125.762" height="112.012" filterUnits="userSpaceOnUse" color-interpolation-filters="sRGB">
<feFlood flood-opacity="0" result="BackgroundImageFix"/>
<feBlend mode="normal" in="SourceGraphic" in2="BackgroundImageFix" result="shape"/>
<feGaussianBlur stdDeviation="22.9222" result="effect1_foregroundBlur_333_55"/>
</filter>
<filter id="filter10_f_333_55" x="309.262" y="259.702" width="125.607" height="107.992" filterUnits="userSpaceOnUse" color-interpolation-filters="sRGB">
<feFlood flood-opacity="0" result="BackgroundImageFix"/>
<feBlend mode="normal" in="SourceGraphic" in2="BackgroundImageFix" result="shape"/>
<feGaussianBlur stdDeviation="22.9222" result="effect1_foregroundBlur_333_55"/>
</filter>
<filter id="filter11_f_333_55" x="633.558" y="271.189" width="125.607" height="107.992" filterUnits="userSpaceOnUse" color-interpolation-filters="sRGB">
<feFlood flood-opacity="0" result="BackgroundImageFix"/>
<feBlend mode="normal" in="SourceGraphic" in2="BackgroundImageFix" result="shape"/>
<feGaussianBlur stdDeviation="22.9222" result="effect1_foregroundBlur_333_55"/>
</filter>
<linearGradient id="paint0_linear_333_55" x1="561.372" y1="343.842" x2="555.801" y2="475.463" gradientUnits="userSpaceOnUse">
<stop stop-color="#64422D"/>
<stop offset="1" stop-color="#493325"/>
</linearGradient>
</defs>
</svg>
