<svg width="687" height="361" viewBox="0 0 687 361" fill="none" xmlns="http://www.w3.org/2000/svg">
<g filter="url(#filter0_f_356_111)">
<path d="M352.308 48.5194C414.825 48.5194 466.281 72.3161 472.767 102.867C493.117 107.497 510.225 116.844 521.202 128.967C529.415 127.326 538.116 126.445 547.123 126.445C597.221 126.445 637.833 153.702 637.833 187.325C637.833 214.033 612.207 236.723 576.557 244.927C576.817 246.808 576.953 248.713 576.953 250.64C576.953 284.262 536.341 311.519 486.243 311.519C456.9 311.519 430.81 302.168 414.229 287.664C398.835 295.744 379.454 300.56 358.396 300.56C329.053 300.56 302.964 291.209 286.384 276.705C270.989 284.785 251.607 289.602 230.549 289.602C219.3 289.602 208.53 288.227 198.591 285.716C182.682 294.964 161.929 300.56 139.229 300.56C89.1318 300.56 48.5197 273.304 48.5195 239.682C48.5195 210.419 79.2827 185.978 120.288 180.132C117.176 173.983 115.487 167.393 115.487 160.538C115.487 126.915 156.099 99.6582 206.197 99.6581C215.164 99.6581 223.827 100.531 232.008 102.158C239.133 71.9488 290.275 48.5195 352.308 48.5194Z" fill="url(#paint0_linear_356_111)"/>
</g>
<defs>
<filter id="filter0_f_356_111" x="0.000102997" y="-1.90735e-05" width="686.352" height="360.039" filterUnits="userSpaceOnUse" color-interpolation-filters="sRGB">
<feFlood flood-opacity="0" result="BackgroundImageFix"/>
<feBlend mode="normal" in="SourceGraphic" in2="BackgroundImageFix" result="shape"/>
<feGaussianBlur stdDeviation="11.7134" result="effect1_foregroundBlur_356_111"/>
</filter>
<linearGradient id="paint0_linear_356_111" x1="343.176" y1="48.5194" x2="343.176" y2="311.519" gradientUnits="userSpaceOnUse">
<stop stop-color="white"/>
<stop offset="1" stop-color="#FDFDFD" stop-opacity="0"/>
</linearGradient>
</defs>
</svg>
