<svg width="143" height="139" viewBox="0 0 143 139" fill="none" xmlns="http://www.w3.org/2000/svg">
<ellipse cx="71.267" cy="69.5" rx="71.267" ry="69.5" fill="white"/>
<g clip-path="url(#clip0_540_225)">
<path d="M82.5166 44.6278C85.885 45.285 88.9807 46.9324 91.4074 49.3591C93.8341 51.7858 95.4815 54.8815 96.1387 58.2499M82.5166 30.8333C89.5148 31.6107 96.0407 34.7446 101.023 39.7204C106.005 44.6962 109.147 51.2182 109.933 58.2154" stroke="#1B6FB2" stroke-width="7.83333" stroke-linecap="round" stroke-linejoin="round"/>
<path d="M36.0839 47.6636C37.5199 61.0903 42.9591 74.2233 52.5285 85.1558C62.0979 96.0882 74.3954 103.218 87.5138 106.419C87.7135 106.468 87.2143 106.346 88.0865 106.457C94.1115 107.228 102.244 102.502 104.559 96.8861C104.894 96.0731 105.011 95.6619 105.247 94.8396L105.247 94.8396C105.459 94.098 105.565 93.7272 105.631 93.382C106.156 90.6387 105.181 87.8235 103.071 85.9931C102.805 85.7628 102.493 85.5371 101.867 85.0857L92.4272 78.2753C89.4007 76.0918 85.2131 76.5509 82.7315 79.3383C79.82 82.6085 74.7012 82.5869 71.8174 79.2923L60.8938 66.8129C58.01 63.5183 58.6662 58.4417 62.2931 55.9888C65.3845 53.898 66.3939 49.808 64.6302 46.519L59.1293 36.2608C58.7648 35.5809 58.5825 35.241 58.3894 34.9474C56.8543 32.614 54.193 31.2745 51.4044 31.4317C51.0535 31.4514 50.6719 31.5075 49.9088 31.6197L49.9087 31.6198C49.0625 31.7442 48.6394 31.8064 47.7892 32.0308C41.9163 33.5812 36.1556 41.0169 36.1216 47.0909C36.1167 47.9702 36.0621 47.4592 36.0839 47.6636Z" fill="#E8F5FF" stroke="#1B6FB2" stroke-width="7.83333" stroke-linecap="round"/>
</g>
<defs>
<clipPath id="clip0_540_225">
<rect width="94" height="94" fill="white" transform="translate(23.7666 23)"/>
</clipPath>
</defs>
</svg>
