<svg width="1211" height="760" viewBox="0 0 1211 760" fill="none" xmlns="http://www.w3.org/2000/svg">
<path d="M1211 13.5152C1211 6.05097 1204.95 0 1197.48 0H13.5152C6.05097 0 0 6.05097 0 13.5152V76C360.216 51.68 1106.72 17.632 1211 76V13.5152Z" fill="#85634E"/>
<path d="M134.556 404.32H37.1429H0V452.96L134.556 404.32Z" fill="#7D5B46"/>
<path d="M32.7116 575.919C31.9316 575.017 31.0356 574.222 30.047 573.555L0 553.28V559.36L28.2763 576.278C29.7358 577.152 31.0174 578.292 32.0537 579.641L44.0965 595.313C48.3106 600.797 55.9848 602.215 61.8801 598.598L84.6111 584.654C85.6092 584.042 86.8399 583.944 87.9221 584.392C92.0179 586.084 95.0344 580.4 91.3375 577.956L88.5002 576.081C87.1159 575.166 85.3096 575.203 83.9649 576.176L60.9705 592.8C56.2123 596.24 49.6139 595.471 45.7741 591.029L32.7116 575.919Z" fill="#69452B"/>
<path d="M0 553.28L30.047 573.555C31.0356 574.222 31.9316 575.017 32.7116 575.919L45.7741 591.029C49.6139 595.471 56.2123 596.24 60.9705 592.8L19.6957 551.023C13.9523 545.21 4.27971 546.318 0 553.28Z" fill="#85634E"/>
<path d="M6.51075 380L0 404.32H37.1429L34.7464 385.363L6.51075 380Z" fill="#85634E"/>
<path d="M37.1429 404.32H134.556L34.7464 385.363L37.1429 404.32Z" fill="#85634E"/>
<path d="M0 671.84V746.485C0 753.949 6.05095 760 13.5152 760H106.173L75.8706 748.693C74.3591 748.129 72.7589 747.84 71.1456 747.84H54.861C50.1655 747.84 45.8065 745.403 43.3474 741.403L32.1368 723.167C31.1105 721.497 29.2913 720.48 27.3316 720.48C22.8798 720.48 18.869 717.791 17.1779 713.673L0 671.84Z" fill="#6E4F3B"/>
<path d="M1196.28 539.6H1155.86C1150.96 539.6 1146.45 536.949 1144.06 532.672L1110.05 471.736C1105.2 463.041 1092.93 462.401 1087.2 470.545L1038.6 539.6L1087.81 484.395C1093.74 477.747 1104.36 478.547 1109.22 486.008L1147.08 544.104C1149.58 547.932 1153.84 550.24 1158.4 550.24H1211V539.6H1207.85H1196.28Z" fill="#6C4318"/>
<path d="M1211 221.92C1211 221.92 1170.66 209.98 1160.54 221.92C1158.41 224.432 1156.26 226.54 1154.17 228.589L1154.17 228.592C1146.31 236.283 1139.29 243.159 1137.41 267.52C1135.66 290.29 1151.01 281.551 1164.51 273.86C1169.31 271.129 1173.88 268.53 1177.36 267.52C1187.46 264.595 1201.62 255.596 1207.85 251.433C1209.82 250.114 1211 249.28 1211 249.28V221.92Z" fill="#7D5B46"/>
<path d="M1211 539.6V249.28C1211 249.28 1209.82 250.114 1207.85 251.433V539.6H1211Z" fill="#B39262"/>
<path d="M260.701 224.885C260.701 218.721 274.912 207.212 281.042 207.852C387.824 218.985 885.087 221.92 1112 221.92L848.147 231.04H266.857C263.457 231.04 260.701 228.284 260.701 224.885Z" fill="#7D5B46"/>
<path d="M419.932 346.56C418.903 346.56 417.878 346.677 416.875 346.91L274.367 380H418.384L556.093 404.32L660.347 422.055C607.666 407.998 561.565 393.586 556.093 385.363C546.452 370.875 513.018 354.692 495.385 347.508C493.817 346.869 492.151 346.56 490.458 346.56H419.932Z" fill="#7D5B46"/>
<path fill-rule="evenodd" clip-rule="evenodd" d="M1112 221.92C885.087 221.92 387.824 218.985 281.042 207.852C274.912 207.212 260.701 218.721 260.701 224.885C260.701 228.284 263.457 231.04 266.857 231.04H848.147L1112 221.92ZM419.932 346.56C418.903 346.56 417.878 346.677 416.875 346.91L274.367 380H418.384L556.093 404.32L660.347 422.055C607.666 407.998 561.565 393.586 556.093 385.363C546.452 370.875 513.018 354.692 495.385 347.508C493.817 346.869 492.151 346.56 490.458 346.56H419.932ZM338.553 575.316C337.121 574.816 335.614 574.56 334.096 574.56H134.556L330.083 586.591C331.475 586.676 332.846 586.977 334.147 587.482L470.311 640.377C472.114 641.078 474.046 641.383 475.977 641.272L683.579 629.384C684.783 629.315 685.99 629.407 687.169 629.658L839.934 662.211C853.142 665.025 861.856 648.864 852.247 639.376L844.932 632.152C843.035 630.279 840.627 629.009 838.011 628.501L687.727 599.333C686.183 599.033 684.597 599.006 683.043 599.251L496.378 628.749C494.174 629.098 491.917 628.895 489.811 628.159L338.553 575.316Z" fill="#7D5B46"/>
<path d="M134.556 574.56H334.096C335.614 574.56 337.121 574.816 338.553 575.316L489.811 628.159C491.917 628.895 494.174 629.098 496.378 628.749L683.043 599.251C684.597 599.006 686.183 599.033 687.727 599.333L838.011 628.501C840.627 629.009 843.035 630.279 844.932 632.152L852.247 639.376C861.856 648.864 853.142 665.025 839.934 662.211L687.169 629.658C685.99 629.407 684.783 629.315 683.579 629.384L475.977 641.272C474.046 641.383 472.114 641.078 470.311 640.377L334.147 587.482C332.846 586.977 331.475 586.676 330.083 586.591L134.556 574.56Z" fill="#7D5B46"/>
<path d="M848.147 304.505L413.311 291.84L848.147 337.945L985.857 362.265L1090.11 380C1037.43 365.943 991.328 351.531 985.857 343.308C976.216 328.82 942.781 312.637 925.149 305.453C923.581 304.814 921.914 304.505 920.221 304.505H848.147Z" fill="#7D5B46"/>
<path d="M147.17 88.16H346.711C348.228 88.16 349.735 88.4156 351.168 88.9162L502.425 141.759C504.532 142.495 506.788 142.698 508.992 142.349L695.657 112.851C697.212 112.606 698.797 112.633 700.342 112.933L850.625 142.101C853.242 142.609 855.65 143.879 857.547 145.752L864.862 152.976C874.471 162.464 865.756 178.625 852.549 175.811L699.783 143.258C698.604 143.007 697.397 142.915 696.194 142.984L488.592 154.872C486.661 154.983 484.728 154.678 482.925 153.977L346.761 101.082C345.461 100.577 344.09 100.276 342.697 100.191L147.17 88.16Z" fill="#7D5B46"/>
<path d="M172.897 449.415C171.868 449.415 170.842 449.532 169.84 449.765L142.236 456.174C126.579 459.81 129.219 482.855 145.292 482.855H170.164C170.952 482.855 171.738 482.924 172.514 483.061L309.057 507.175L413.311 524.909C360.63 510.853 314.529 496.441 309.057 488.218C299.416 473.729 265.982 457.547 248.35 450.362C246.782 449.723 245.115 449.415 243.422 449.415H172.897Z" fill="#7D5B46"/>
<path d="M996.555 643.72C990.316 642.39 985.857 636.88 985.857 630.501V627.431C985.857 618.933 993.605 612.544 1001.95 614.163L1138.47 640.661C1141.09 641.169 1143.5 642.439 1145.4 644.312L1152.71 651.536C1162.32 661.024 1153.61 677.185 1140.4 674.371L996.555 643.72Z" fill="#7D5B46"/>
<path fill-rule="evenodd" clip-rule="evenodd" d="M1211 76C1106.72 17.632 360.216 51.68 0 76V170.24V203.68V404.32L6.51075 380L34.7464 385.363L134.556 404.32L0 452.96V553.28C4.27971 546.318 13.9523 545.21 19.6957 551.023L60.9705 592.8L83.9649 576.176C85.3096 575.203 87.1159 575.166 88.5002 576.081L91.3375 577.956C95.0344 580.4 92.0179 586.084 87.9221 584.392C86.8399 583.944 85.6092 584.042 84.6111 584.654L61.8801 598.598C55.9848 602.215 48.3106 600.797 44.0965 595.313L32.0537 579.641C31.0174 578.292 29.7358 577.152 28.2763 576.278L0 559.36V671.84L17.1779 713.673C18.869 717.791 22.8798 720.48 27.3316 720.48C29.2913 720.48 31.1105 721.497 32.1368 723.167L43.3474 741.403C45.8065 745.403 50.1655 747.84 54.861 747.84H71.1456C72.7589 747.84 74.3591 748.129 75.8706 748.693L106.173 760H1197.48C1204.95 760 1211 753.949 1211 746.485V550.24H1158.4C1153.84 550.24 1149.58 547.932 1147.08 544.104L1109.22 486.008C1104.36 478.547 1093.74 477.747 1087.81 484.395L1038.6 539.6L1087.2 470.545C1092.93 462.401 1105.2 463.041 1110.05 471.736L1144.06 532.672C1146.45 536.949 1150.96 539.6 1155.86 539.6H1196.28H1207.85V251.433C1201.62 255.596 1187.46 264.595 1177.36 267.52C1173.88 268.53 1169.31 271.129 1164.51 273.86C1151.01 281.551 1135.66 290.29 1137.41 267.52C1139.29 243.159 1146.31 236.283 1154.17 228.592L1154.17 228.589C1156.26 226.54 1158.41 224.432 1160.54 221.92C1170.66 209.98 1211 221.92 1211 221.92V76ZM1112 221.92C885.087 221.92 387.824 218.985 281.042 207.852C274.912 207.212 260.701 218.721 260.701 224.885C260.701 228.284 263.457 231.04 266.857 231.04H848.147L1112 221.92ZM274.367 380L416.875 346.91C417.878 346.677 418.903 346.56 419.932 346.56H490.458C492.151 346.56 493.817 346.869 495.385 347.508C513.018 354.692 546.452 370.875 556.093 385.363C561.565 393.586 607.666 407.998 660.347 422.055L896.687 452.96H843.508C842.521 452.96 841.585 452.86 840.62 452.654C805.838 445.221 704.219 433.761 660.347 422.055L556.093 404.32L418.384 380H274.367ZM338.553 575.316C337.121 574.816 335.614 574.56 334.096 574.56H134.556L330.083 586.591C331.475 586.676 332.846 586.977 334.147 587.482L470.311 640.377C472.114 641.078 474.046 641.383 475.977 641.272L683.579 629.384C684.783 629.315 685.99 629.407 687.169 629.658L839.934 662.211C853.142 665.025 861.856 648.864 852.247 639.376L844.932 632.152C843.035 630.279 840.627 629.009 838.011 628.501L687.727 599.333C686.183 599.033 684.597 599.006 683.043 599.251L496.378 628.749C494.174 629.098 491.917 628.895 489.811 628.159L338.553 575.316ZM848.147 304.505L413.311 291.84L848.147 337.945L985.857 362.265L1090.11 380C1037.43 365.943 991.328 351.531 985.857 343.308C976.216 328.82 942.781 312.637 925.149 305.453C923.581 304.814 921.914 304.505 920.221 304.505H848.147ZM351.168 88.9162C349.735 88.4156 348.228 88.16 346.711 88.16H147.17L342.697 100.191C344.09 100.276 345.461 100.577 346.761 101.082L482.925 153.977C484.728 154.678 486.661 154.983 488.592 154.872L696.194 142.984C697.397 142.915 698.604 143.007 699.783 143.258L852.549 175.811C865.756 178.625 874.471 162.464 864.862 152.976L857.547 145.752C855.65 143.879 853.242 142.609 850.625 142.101L700.342 112.933C698.797 112.633 697.212 112.606 695.657 112.851L508.992 142.349C506.788 142.698 504.532 142.495 502.425 141.759L351.168 88.9162ZM172.897 449.415C171.868 449.415 170.842 449.532 169.84 449.765L142.236 456.174C126.579 459.81 129.219 482.855 145.292 482.855H170.164C170.952 482.855 171.738 482.924 172.514 483.061L309.057 507.175L413.311 524.909C360.63 510.853 314.529 496.441 309.057 488.218C299.416 473.729 265.982 457.547 248.35 450.362C246.782 449.723 245.115 449.415 243.422 449.415H172.897ZM1001.95 614.163C993.605 612.544 985.857 618.933 985.857 627.431V630.501C985.857 636.88 990.316 642.39 996.555 643.72L1140.4 674.371C1153.61 677.185 1162.32 661.024 1152.71 651.536L1145.4 644.312C1143.5 642.439 1141.09 641.169 1138.47 640.661L1001.95 614.163Z" fill="#85634E"/>
<path d="M840.62 452.654C841.585 452.86 842.521 452.96 843.508 452.96H896.687L660.347 422.055C704.219 433.761 805.838 445.221 840.62 452.654Z" fill="#7D5B46"/>
</svg>
