<svg width="143" height="139" viewBox="0 0 143 139" fill="none" xmlns="http://www.w3.org/2000/svg">
<ellipse cx="71.267" cy="69.5" rx="71.267" ry="69.5" fill="white"/>
<path d="M58.7666 56.5C65.9463 56.5 71.7666 50.6797 71.7666 43.5C71.7666 36.3203 65.9463 30.5 58.7666 30.5C51.5869 30.5 45.7666 36.3203 45.7666 43.5C45.7666 50.6797 51.5869 56.5 58.7666 56.5Z" stroke="#1B6FB2" stroke-width="8.66667" stroke-linecap="round" stroke-linejoin="round"/>
<path d="M84.7666 104.167V95.5C84.7666 87.4237 84.7666 83.3855 83.4472 80.2002C81.6879 75.953 78.3136 72.5786 74.0664 70.8194C70.8811 69.5 66.8429 69.5 58.7666 69.5C50.6903 69.5 46.6521 69.5 43.4668 70.8194C39.2196 72.5786 35.8453 75.953 34.086 80.2002C32.7666 83.3855 32.7666 87.4237 32.7666 95.5V104.167" stroke="#1B6FB2" stroke-width="8.66667" stroke-linecap="round"/>
<path d="M84.7666 56.5C91.9463 56.5 97.7666 50.6797 97.7666 43.5C97.7666 36.3203 91.9463 30.5 84.7666 30.5" stroke="#1B6FB2" stroke-width="8.66667" stroke-linecap="round" stroke-linejoin="round"/>
<path d="M110.767 104.167V89C110.767 86.9879 110.767 85.9818 110.683 85.1344C109.873 76.9049 103.362 70.394 95.1322 69.5835C94.2848 69.5 93.2787 69.5 91.2666 69.5" stroke="#1B6FB2" stroke-width="8.66667" stroke-linecap="round"/>
</svg>
