<svg width="3636" height="850" viewBox="0 0 3636 850" fill="none" xmlns="http://www.w3.org/2000/svg">
<circle cx="176.529" cy="529.586" r="176.529" fill="url(#paint0_linear_525_248)"/>
<circle cx="196.388" cy="291.272" r="176.529" fill="#F5D77F"/>
<circle cx="403.809" cy="176.529" r="176.529" fill="url(#paint1_linear_525_248)"/>
<path d="M580.393 427.987C580.393 529.298 495.321 611.426 390.38 611.426C285.438 611.426 200.366 524.363 200.366 423.052C200.366 321.741 285.438 239.613 390.38 239.613C495.321 239.613 580.393 326.677 580.393 427.987Z" fill="#FEFFF1"/>
<ellipse cx="600.932" cy="562.635" rx="150.426" ry="176.529" transform="rotate(28.8841 600.932 562.635)" fill="#F7B675"/>
<ellipse cx="627.302" cy="304.622" rx="137.67" ry="172.116" transform="rotate(-15.8131 627.302 304.622)" fill="#F7B675"/>
<ellipse cx="377.33" cy="685.152" rx="176.529" ry="164.392" fill="#F7B675"/>
<path d="M1162.68 778.903C1144.87 778.903 1128.98 773.499 1114.99 762.691C1101.01 751.247 1094.01 737.26 1094.01 720.729V169.506C1094.01 152.976 1099.42 139.307 1110.22 128.498C1121.67 117.054 1135.66 111.332 1152.19 111.332H1426.84C1459.9 111.332 1490.74 120.233 1519.35 138.035C1548.6 155.201 1572.12 179.361 1589.92 210.514C1607.72 241.032 1616.62 276.318 1616.62 316.372C1616.62 340.532 1611.54 364.056 1601.37 386.944C1591.83 409.832 1578.48 430.495 1561.31 448.932C1544.78 467.37 1526.03 481.675 1505.05 491.848L1506 469.913C1523.8 479.45 1538.42 490.894 1549.87 504.245C1561.95 516.961 1571.17 530.948 1577.52 546.207C1584.52 560.83 1588.65 576.725 1589.92 593.891C1592.47 609.785 1594.05 623.772 1594.69 635.852C1595.96 647.932 1597.87 658.105 1600.41 666.37C1603.59 674.635 1609.31 680.993 1617.58 685.443C1631.57 693.709 1640.15 705.788 1643.33 721.683C1647.14 736.942 1643.65 750.611 1632.84 762.691C1625.84 770.956 1616.94 776.36 1606.13 778.903C1595.33 780.811 1584.52 780.811 1573.71 778.903C1562.9 776.36 1554 773.181 1547.01 769.367C1536.2 763.009 1525.39 753.79 1514.58 741.71C1503.77 728.994 1494.87 712.146 1487.88 691.165C1481.52 670.185 1478.34 643.164 1478.34 610.103C1478.34 599.295 1476.43 589.44 1472.62 580.539C1468.81 571.003 1463.4 563.055 1456.41 556.697C1449.41 549.704 1440.51 544.618 1429.7 541.439C1418.9 537.624 1406.18 535.717 1391.56 535.717H1198.92L1213.22 513.782V720.729C1213.22 737.26 1208.77 751.247 1199.87 762.691C1190.97 773.499 1178.57 778.903 1162.68 778.903ZM1199.87 437.488H1422.08C1433.52 437.488 1444.65 432.402 1455.45 422.23C1466.26 411.421 1475.16 397.116 1482.16 379.314C1489.15 360.877 1492.65 340.849 1492.65 319.233C1492.65 291.258 1485.02 268.052 1469.76 249.615C1455.14 230.541 1439.24 221.005 1422.08 221.005H1201.78L1213.22 190.487V460.377L1199.87 437.488ZM1974.86 788.44C1920.82 788.44 1873.77 777.314 1833.72 755.061C1794.3 732.173 1763.78 701.338 1742.17 662.555C1721.19 623.772 1710.7 579.904 1710.7 530.948C1710.7 473.728 1722.14 425.091 1745.03 385.036C1768.55 344.346 1799.07 313.193 1836.58 291.576C1874.09 269.96 1913.83 259.152 1955.79 259.152C1988.21 259.152 2018.73 265.827 2047.34 279.179C2076.59 292.53 2102.34 310.968 2124.59 334.492C2146.84 357.38 2164.33 384.083 2177.04 414.6C2190.39 445.118 2197.07 477.543 2197.07 511.875C2196.43 527.134 2190.39 539.531 2178.95 549.068C2167.51 558.605 2154.15 563.373 2138.89 563.373H1774.59L1745.98 468.006H2095.98L2075 487.079V461.33C2073.73 442.893 2067.05 426.362 2054.97 411.739C2043.53 397.116 2028.9 385.672 2011.1 377.407C1993.94 368.506 1975.5 364.056 1955.79 364.056C1936.72 364.056 1918.91 366.599 1902.38 371.685C1885.85 376.771 1871.55 385.354 1859.47 397.434C1847.39 409.514 1837.85 425.726 1830.86 446.071C1823.86 466.416 1820.37 492.166 1820.37 523.319C1820.37 557.651 1827.36 586.897 1841.35 611.057C1855.97 634.581 1874.41 652.701 1896.66 665.416C1919.55 677.496 1943.71 683.536 1969.14 683.536C1992.67 683.536 2011.42 681.629 2025.41 677.814C2039.4 673.999 2050.52 669.549 2058.79 664.463C2067.69 658.741 2075.63 653.972 2082.63 650.157C2094.07 644.435 2104.88 641.574 2115.05 641.574C2129.04 641.574 2140.48 646.343 2149.39 655.879C2158.92 665.416 2163.69 676.542 2163.69 689.258C2163.69 706.424 2154.79 722.001 2136.99 735.988C2120.46 749.975 2097.25 762.373 2067.37 773.181C2037.49 783.354 2006.65 788.44 1974.86 788.44ZM2363.81 778.903C2347.28 778.903 2333.61 773.499 2322.8 762.691C2312 751.247 2306.59 737.26 2306.59 720.729V131.359C2306.59 114.829 2312 101.16 2322.8 90.3513C2333.61 78.9073 2347.28 73.1853 2363.81 73.1853C2380.34 73.1853 2394.01 78.9073 2404.82 90.3513C2415.63 101.16 2421.03 114.829 2421.03 131.359V720.729C2421.03 737.26 2415.63 751.247 2404.82 762.691C2394.01 773.499 2380.34 778.903 2363.81 778.903ZM2667.08 268.688C2681.7 268.688 2694.42 274.728 2705.23 286.808C2716.04 298.888 2721.44 310.65 2721.44 322.094C2721.44 337.353 2713.81 351.658 2698.55 365.009L2411.5 629.177L2406.73 497.57L2625.12 286.808C2637.2 274.728 2651.19 268.688 2667.08 268.688ZM2681.39 777.95C2664.86 777.95 2650.87 771.592 2639.42 758.876L2462.99 571.956L2549.78 491.848L2721.44 678.768C2733.52 691.483 2739.56 705.788 2739.56 721.683C2739.56 738.213 2732.88 751.883 2719.53 762.691C2706.82 772.863 2694.1 777.95 2681.39 777.95ZM3254 259.152C3270.53 259.152 3284.2 264.556 3295.01 275.364C3305.82 286.172 3311.22 300.159 3311.22 317.326V720.729C3311.22 737.26 3305.82 751.247 3295.01 762.691C3284.2 773.499 3270.53 778.903 3254 778.903C3237.47 778.903 3223.8 773.499 3212.99 762.691C3202.18 751.247 3196.78 737.26 3196.78 720.729V673.999L3217.76 682.582C3217.76 690.848 3213.31 701.02 3204.41 713.1C3195.51 724.544 3183.43 735.988 3168.17 747.432C3152.91 758.876 3134.79 768.731 3113.81 776.996C3093.46 784.625 3071.21 788.44 3047.05 788.44C3003.18 788.44 2963.45 777.314 2927.84 755.061C2892.24 732.173 2863.95 701.02 2842.97 661.602C2822.62 621.547 2812.45 575.771 2812.45 524.273C2812.45 472.138 2822.62 426.362 2842.97 386.944C2863.95 346.889 2891.92 315.736 2926.89 293.484C2961.86 270.596 3000.64 259.152 3043.24 259.152C3070.58 259.152 3095.69 263.284 3118.58 271.549C3141.47 279.814 3161.18 290.305 3177.71 303.02C3194.87 315.736 3207.91 328.77 3216.81 342.121C3226.34 354.837 3231.11 365.645 3231.11 374.546L3196.78 386.944V317.326C3196.78 300.795 3202.18 287.126 3212.99 276.318C3223.8 264.874 3237.47 259.152 3254 259.152ZM3061.36 683.536C3089.33 683.536 3113.81 676.542 3134.79 662.555C3155.77 648.568 3171.98 629.495 3183.43 605.335C3195.51 581.175 3201.55 554.154 3201.55 524.273C3201.55 493.755 3195.51 466.416 3183.43 442.257C3171.98 418.097 3155.77 399.024 3134.79 385.036C3113.81 371.049 3089.33 364.056 3061.36 364.056C3034.02 364.056 3009.86 371.049 2988.88 385.036C2967.9 399.024 2951.37 418.097 2939.29 442.257C2927.84 466.416 2922.12 493.755 2922.12 524.273C2922.12 554.154 2927.84 581.175 2939.29 605.335C2951.37 629.495 2967.9 648.568 2988.88 662.555C3009.86 676.542 3034.02 683.536 3061.36 683.536ZM3485.68 777.95C3467.24 777.95 3452.93 773.181 3442.76 763.645C3433.22 753.472 3428.45 739.167 3428.45 720.729V704.517C3428.45 686.079 3433.22 672.092 3442.76 662.555C3452.93 652.383 3467.24 647.296 3485.68 647.296H3498.07C3516.51 647.296 3530.5 652.383 3540.03 662.555C3550.21 672.092 3555.29 686.079 3555.29 704.517V720.729C3555.29 739.167 3550.21 753.472 3540.03 763.645C3530.5 773.181 3516.51 777.95 3498.07 777.95H3485.68Z" fill="#2D2D2D"/>
<defs>
<linearGradient id="paint0_linear_525_248" x1="145.725" y1="384.465" x2="408.236" y2="913.622" gradientUnits="userSpaceOnUse">
<stop stop-color="#F5D77F"/>
<stop offset="0.375609" stop-color="#F7B675"/>
</linearGradient>
<linearGradient id="paint1_linear_525_248" x1="214.969" y1="70.2786" x2="580.832" y2="147.792" gradientUnits="userSpaceOnUse">
<stop stop-color="#F5D77F"/>
<stop offset="0.837153" stop-color="#F7B675"/>
</linearGradient>
</defs>
</svg>
