<svg width="1586" height="818" viewBox="0 0 1586 818" fill="none" xmlns="http://www.w3.org/2000/svg">
<g filter="url(#filter0_n_353_1260)">
<path d="M457.209 526.499C1102.9 380.868 1218.17 341.663 1557.81 410.887L1548.73 818L142.186 818L0 526.499C89.1877 494.715 298.47 562.302 457.209 526.499Z" fill="url(#paint0_radial_353_1260)"/>
</g>
<g filter="url(#filter1_f_353_1260)">
<ellipse cx="1416.18" cy="444.76" rx="126.008" ry="47.1011" fill="#7A8C64" fill-opacity="0.6"/>
</g>
<path d="M1129.49 479.107C1127.96 472.278 1126.48 462.318 1132.79 477.108L1129.49 479.107Z" fill="#7C9C77"/>
<path d="M1134.22 476.234C1135.46 465.407 1138.06 450.25 1138.52 476.234H1134.22Z" fill="#7C9C77"/>
<path d="M1140.38 476.234C1141.33 472.653 1144.67 465.616 1150.4 466.115C1150.69 467.031 1149.09 470.338 1140.38 476.234Z" fill="#7C9C77"/>
<path d="M1150.4 472.986L1145.53 476.234L1147.97 477.108C1151.98 476.409 1151.26 474.069 1150.4 472.986Z" fill="#7C9C77"/>
<path d="M626.969 544.968C625.441 538.139 623.961 528.179 630.263 542.97L626.969 544.968Z" fill="#7C9C77"/>
<path d="M631.695 542.095C632.937 531.269 635.534 516.112 635.992 542.095H631.695Z" fill="#7C9C77"/>
<path d="M637.854 542.095C638.809 538.514 642.151 531.477 647.88 531.977C648.167 532.893 646.562 536.199 637.854 542.095Z" fill="#7C9C77"/>
<path d="M647.88 538.847L643.01 542.095L645.445 542.97C649.456 542.27 648.739 539.93 647.88 538.847Z" fill="#7C9C77"/>
<path d="M107.969 598.968C106.441 592.139 104.961 582.179 111.263 596.97L107.969 598.968Z" fill="#7C9C77"/>
<path d="M112.695 596.095C113.937 585.269 116.534 570.112 116.992 596.095H112.695Z" fill="#7C9C77"/>
<path d="M118.854 596.095C119.809 592.514 123.151 585.477 128.88 585.977C129.167 586.893 127.562 590.199 118.854 596.095Z" fill="#7C9C77"/>
<path d="M128.88 592.847L124.01 596.095L126.445 596.97C130.456 596.27 129.739 593.93 128.88 592.847Z" fill="#7C9C77"/>
<path d="M731.828 470.544C730.3 463.715 728.82 453.754 735.122 468.545L731.828 470.544Z" fill="#7C9C77"/>
<path d="M736.555 467.67C737.796 456.844 740.393 441.687 740.852 467.67H736.555Z" fill="#7C9C77"/>
<path d="M742.714 467.67C743.668 464.089 747.01 457.052 752.739 457.552C753.026 458.468 751.422 461.774 742.714 467.67Z" fill="#7C9C77"/>
<path d="M752.739 464.422L747.87 467.67L750.305 468.545C754.315 467.845 753.599 465.505 752.739 464.422Z" fill="#7C9C77"/>
<g filter="url(#filter2_f_353_1260)">
<ellipse cx="10.7815" cy="4.09893" rx="10.7815" ry="4.09893" transform="matrix(1 0 0 -1 1090.52 440.783)" fill="#62C4CD"/>
</g>
<g filter="url(#filter3_f_353_1260)">
<ellipse cx="10.7815" cy="4.09893" rx="10.7815" ry="4.09893" transform="matrix(1 0 0 -1 588 506.645)" fill="#62C4CD"/>
</g>
<g filter="url(#filter4_f_353_1260)">
<ellipse cx="10.7815" cy="4.09893" rx="10.7815" ry="4.09893" transform="matrix(1 0 0 -1 69 560.645)" fill="#62C4CD"/>
</g>
<g filter="url(#filter5_f_353_1260)">
<ellipse cx="1037.19" cy="488.068" rx="10.7815" ry="4.09893" transform="rotate(180 1037.19 488.068)" fill="#62C4CD"/>
</g>
<g filter="url(#filter6_f_353_1260)">
<ellipse cx="1233.51" cy="429.353" rx="3.50673" ry="4.40786" fill="#F7F2B2"/>
</g>
<g filter="url(#filter7_f_353_1260)">
<ellipse cx="730.992" cy="495.214" rx="3.50673" ry="4.40786" fill="#F7F2B2"/>
</g>
<g filter="url(#filter8_f_353_1260)">
<ellipse cx="211.992" cy="549.214" rx="3.50673" ry="4.40786" fill="#F7F2B2"/>
</g>
<g filter="url(#filter9_f_353_1260)">
<ellipse cx="3.50673" cy="4.40786" rx="3.50673" ry="4.40786" transform="matrix(-1 0 0 1 908.489 476.328)" fill="#F7F2B2"/>
</g>
<path d="M1304.9 374.217C1304.9 377.29 1303.65 379.882 1301.95 380.694C1301.59 380.865 1301.2 380.957 1300.81 380.957C1300.42 380.957 1300.03 380.865 1299.67 380.694C1297.97 379.882 1296.72 377.29 1296.72 374.217C1296.72 370.495 1298.55 372.513 1300.81 372.513C1303.07 372.513 1304.9 370.495 1304.9 374.217Z" fill="#C38970"/>
<path d="M1300.81 380.957C1300.42 380.957 1300.03 380.865 1299.67 380.694C1300.13 382.169 1300.76 385.754 1299.67 388.292H1300.81C1301.11 387.191 1301.76 384.13 1301.95 380.694C1301.59 380.865 1301.2 380.957 1300.81 380.957Z" fill="#689075"/>
<path d="M1187.56 408.108C1187.56 410.798 1188.65 413.067 1190.14 413.777C1190.46 413.928 1190.79 414.008 1191.14 414.008C1191.48 414.008 1191.82 413.928 1192.13 413.777C1193.63 413.067 1194.72 410.798 1194.72 408.108C1194.72 404.85 1193.11 406.617 1191.14 406.617C1189.16 406.617 1187.56 404.85 1187.56 408.108Z" fill="#C8BE70"/>
<path d="M1191.14 414.008C1191.48 414.008 1191.82 413.928 1192.13 413.777C1191.73 415.069 1191.18 418.207 1192.13 420.428H1191.14C1190.87 419.465 1190.3 416.786 1190.14 413.777C1190.46 413.928 1190.79 414.008 1191.14 414.008Z" fill="#689075"/>
<path d="M685.033 473.97C685.033 476.659 686.126 478.929 687.62 479.639C687.935 479.789 688.269 479.869 688.614 479.869C688.959 479.869 689.293 479.789 689.609 479.639C691.103 478.929 692.195 476.659 692.195 473.97C692.195 470.712 690.592 472.478 688.614 472.478C686.637 472.478 685.033 470.712 685.033 473.97Z" fill="#C8BE70"/>
<path d="M688.614 479.869C688.959 479.869 689.293 479.789 689.609 479.639C689.211 480.93 688.654 484.068 689.609 486.289H688.614C688.349 485.326 687.779 482.647 687.62 479.639C687.935 479.789 688.269 479.869 688.614 479.869Z" fill="#689075"/>
<path d="M167 522.97C167 525.659 168.093 527.929 169.586 528.639C169.902 528.789 170.236 528.869 170.581 528.869C170.926 528.869 171.26 528.789 171.576 528.639C173.07 527.929 174.162 525.659 174.162 522.97C174.162 519.712 172.559 521.478 170.581 521.478C168.603 521.478 167 519.712 167 522.97Z" fill="#C8BE70"/>
<path d="M170.581 528.869C170.926 528.869 171.26 528.789 171.576 528.639C171.178 529.93 170.621 533.068 171.576 535.289H170.581C170.316 534.326 169.746 531.647 169.586 528.639C169.902 528.789 170.236 528.869 170.581 528.869Z" fill="#689075"/>
<path d="M950.941 459.492C950.941 462.181 949.849 464.45 948.355 465.16C948.039 465.311 947.705 465.391 947.36 465.391C947.015 465.391 946.681 465.311 946.366 465.16C944.872 464.45 943.779 462.181 943.779 459.492C943.779 456.233 945.383 458 947.36 458C949.338 458 950.941 456.233 950.941 459.492Z" fill="#C8BE70"/>
<path d="M947.36 465.391C947.015 465.391 946.681 465.311 946.366 465.16C946.763 466.452 947.32 469.59 946.366 471.811H947.36C947.626 470.848 948.196 468.169 948.355 465.16C948.039 465.311 947.705 465.391 947.36 465.391Z" fill="#689075"/>
<g filter="url(#filter10_f_353_1260)">
<ellipse cx="1073" cy="400.849" rx="5.39073" ry="1.76314" fill="#B4D6BC"/>
</g>
<g filter="url(#filter11_f_353_1260)">
<ellipse cx="5.39073" cy="1.76314" rx="5.39073" ry="1.76314" transform="matrix(-1 0 0 1 1070.88 450.469)" fill="#B4D6BC"/>
</g>
<g filter="url(#filter12_f_353_1260)">
<ellipse cx="1180.14" cy="449.041" rx="5.39073" ry="1.76314" fill="#B4D6BC"/>
</g>
<g filter="url(#filter13_f_353_1260)">
<ellipse cx="677.621" cy="514.903" rx="5.39073" ry="1.76314" fill="#B4D6BC"/>
</g>
<g filter="url(#filter14_f_353_1260)">
<ellipse cx="158.621" cy="568.903" rx="5.39073" ry="1.76314" fill="#B4D6BC"/>
</g>
<g filter="url(#filter15_f_353_1260)">
<ellipse cx="5.39073" cy="1.76314" rx="5.39073" ry="1.76314" transform="matrix(-1 0 0 1 963.744 498.661)" fill="#B4D6BC"/>
</g>
<g filter="url(#filter16_f_353_1260)">
<ellipse cx="1156.56" cy="410.84" rx="5.39073" ry="1.76314" fill="#B4D6BC"/>
</g>
<g filter="url(#filter17_f_353_1260)">
<ellipse cx="135.036" cy="530.701" rx="5.39073" ry="1.76314" fill="#B4D6BC"/>
</g>
<g filter="url(#filter18_f_353_1260)">
<ellipse cx="5.39073" cy="1.76314" rx="5.39073" ry="1.76314" transform="matrix(-1 0 0 1 987.329 460.46)" fill="#B4D6BC"/>
</g>
<g filter="url(#filter19_f_353_1260)">
<path d="M1246.35 362.199C1245 359.648 1242.6 356.299 1243.8 363.307C1245.19 365.088 1247.64 367.358 1246.35 362.199Z" fill="#84EEEC"/>
<path d="M1250.97 362.199C1249.72 361.796 1247.39 361.614 1248.08 364.113C1248.94 367.237 1253.16 362.322 1250.97 362.199Z" fill="#84EEEC"/>
<path d="M1252.82 367.237C1249.74 366.935 1245.05 367.016 1250.97 369.757C1252.97 370.093 1256.14 370.059 1252.82 367.237Z" fill="#84EEEC"/>
<path d="M1245.31 373.183C1245.46 371.403 1244.91 368.003 1241.49 368.648C1237.22 369.455 1244.15 374.594 1245.31 373.183Z" fill="#84EEEC"/>
<path d="M1252.82 372.276C1250.74 372.478 1247.27 373.627 1250.04 376.61C1251.58 376.883 1254.3 376.4 1252.82 372.276Z" fill="#84EEEC"/>
<path d="M1248.08 375.4C1247.69 379.129 1247.73 387.393 1250.97 390.618C1251.55 387.964 1251.78 381.205 1248.08 375.4Z" fill="#4B7864"/>
</g>
<g filter="url(#filter20_f_353_1260)">
<path d="M892.15 413.582C893.498 411.031 895.894 407.682 894.692 414.69C893.305 416.471 890.856 418.741 892.15 413.582Z" fill="#84EEEC"/>
<path d="M887.528 413.582C888.778 413.178 891.106 412.997 890.417 415.496C889.555 418.62 885.333 413.704 887.528 413.582Z" fill="#84EEEC"/>
<path d="M885.679 418.62C888.761 418.318 893.444 418.399 887.528 421.14C885.525 421.476 882.352 421.442 885.679 418.62Z" fill="#84EEEC"/>
<path d="M893.19 424.566C893.036 422.786 893.583 419.386 897.003 420.031C901.278 420.838 894.345 425.977 893.19 424.566Z" fill="#84EEEC"/>
<path d="M885.679 423.659C887.759 423.861 891.226 425.01 888.452 427.993C886.912 428.266 884.2 427.783 885.679 423.659Z" fill="#84EEEC"/>
<path d="M890.417 426.783C890.802 430.512 890.763 438.776 887.528 442.001C886.95 439.347 886.719 432.588 890.417 426.783Z" fill="#4B7864"/>
</g>
<g filter="url(#filter21_f_353_1260)">
<path d="M1288.8 403.926C1287.45 401.376 1285.05 398.027 1286.26 405.035C1287.64 406.815 1290.09 409.086 1288.8 403.926Z" fill="#84EEEC"/>
<path d="M1293.42 403.926C1292.17 403.523 1289.84 403.342 1290.53 405.841C1291.39 408.965 1295.62 404.049 1293.42 403.926Z" fill="#84EEEC"/>
<path d="M1295.27 408.965C1292.19 408.663 1287.5 408.743 1293.42 411.485C1295.42 411.821 1298.6 411.787 1295.27 408.965Z" fill="#84EEEC"/>
<path d="M1287.76 414.911C1287.91 413.131 1287.37 409.731 1283.95 410.376C1279.67 411.182 1286.6 416.322 1287.76 414.911Z" fill="#84EEEC"/>
<path d="M1295.27 414.004C1293.19 414.206 1289.72 415.354 1292.5 418.337C1294.04 418.611 1296.75 418.127 1295.27 414.004Z" fill="#84EEEC"/>
<path d="M1290.53 417.128C1290.15 420.857 1290.18 429.121 1293.42 432.346C1294 429.692 1294.23 422.933 1290.53 417.128Z" fill="#4B7864"/>
</g>
<g filter="url(#filter22_f_353_1260)">
<path d="M849.698 455.309C851.046 452.759 853.441 449.41 852.24 456.418C850.853 458.198 848.404 460.469 849.698 455.309Z" fill="#84EEEC"/>
<path d="M845.076 455.309C846.326 454.906 848.654 454.725 847.965 457.224C847.103 460.348 842.881 455.432 845.076 455.309Z" fill="#84EEEC"/>
<path d="M843.227 460.348C846.309 460.046 850.992 460.127 845.076 462.868C843.073 463.204 839.9 463.17 843.227 460.348Z" fill="#84EEEC"/>
<path d="M850.738 466.294C850.584 464.514 851.131 461.114 854.551 461.759C858.826 462.565 851.893 467.705 850.738 466.294Z" fill="#84EEEC"/>
<path d="M843.227 465.387C845.307 465.589 848.773 466.738 846 469.721C844.46 469.994 841.748 469.511 843.227 465.387Z" fill="#84EEEC"/>
<path d="M847.965 468.511C848.35 472.24 848.311 480.504 845.076 483.729C844.498 481.075 844.267 474.316 847.965 468.511Z" fill="#4B7864"/>
</g>
<g filter="url(#filter23_n_353_1260)">
<path d="M1467.31 258.475L1417.27 277.759C1440.02 301.495 1432.66 446.88 1412.06 451.967C1412.06 451.967 1453.98 469.592 1467.31 465.52C1480.65 461.447 1480.65 442.551 1480.65 442.551L1467.31 258.475Z" fill="url(#paint1_linear_353_1260)"/>
<path d="M1524.13 192.368L1502.05 187.417V175.864L1476.24 153.611L1469.2 161.245L1460.5 153.611L1430.76 153.611H1419.39H1402.77C1401.02 153.611 1396.62 152.197 1395.6 153.611L1387.68 161.245C1382.78 161.245 1369.9 170.991 1364.06 175.864L1330.83 208.637L1324.7 214.296C1322.66 219.011 1319.81 228.914 1324.7 230.8C1330.83 233.158 1350.51 234.808 1357.29 239.76C1364.06 244.711 1370.84 265.931 1364.06 269.939C1358.64 273.146 1354.22 277.248 1352.69 278.899C1354.73 283.064 1359.87 292.197 1364.06 295.403C1368.26 298.61 1376.46 305.385 1380.03 308.371V320.632L1376.31 333.835L1385.28 337.844L1400.58 348.454L1419.39 343.502L1430.76 337.844L1437.76 348.454L1448.25 337.844V333.835L1476.24 343.502L1491.55 327.234V314.973L1521.07 312.379L1530.91 303.42V283.143L1543.16 269.939V263.338V245.418V230.8L1535.5 221.605V200.385L1530.91 192.368H1524.13Z" fill="url(#paint2_linear_353_1260)"/>
<path d="M1542.09 148.102L1520.05 143.151V131.598L1494.29 109.346L1487.27 116.98L1478.58 109.346L1448.9 109.346H1437.55H1420.97C1419.22 109.346 1414.83 107.931 1413.81 109.346L1405.91 116.98C1401.02 116.98 1388.16 126.725 1382.34 131.598L1349.17 164.371L1343.06 170.03C1341.02 174.745 1338.17 184.648 1343.06 186.534C1349.17 188.892 1368.81 190.543 1375.57 195.494C1382.34 200.445 1389.1 221.665 1382.34 225.674C1376.93 228.88 1372.52 232.983 1370.99 234.633C1373.03 238.799 1378.15 247.931 1382.34 251.138C1386.53 254.344 1394.71 261.119 1398.27 264.105V276.366L1394.56 289.57L1403.51 293.578L1418.78 304.188L1437.55 299.237L1448.9 293.578L1455.88 304.188L1466.36 293.578V289.57L1494.29 299.237L1509.57 282.968V270.707L1539.03 268.114L1548.85 259.154V238.877L1561.08 225.674V219.072V201.153V186.534L1553.44 177.339V156.119L1548.85 148.102H1542.09Z" fill="url(#paint3_linear_353_1260)"/>
<path d="M1566.53 108.658L1544.44 103.706V92.1531L1518.64 69.9007L1511.6 77.5348L1502.89 69.9007L1473.16 69.9007H1461.78H1445.17C1443.42 69.9007 1439.02 68.486 1438 69.9007L1430.08 77.5348C1425.18 77.5348 1412.29 87.2803 1406.46 92.1531L1373.22 124.926L1367.1 130.585C1365.06 135.301 1362.2 145.203 1367.1 147.09C1373.22 149.447 1392.9 151.098 1399.68 156.049C1406.46 161 1413.24 182.221 1406.46 186.229C1401.04 189.435 1396.62 193.538 1395.09 195.188C1397.13 199.354 1402.26 208.486 1406.46 211.693C1410.66 214.899 1418.85 221.674 1422.42 224.661V236.921L1418.71 250.125L1427.67 254.133L1442.98 264.743L1461.78 259.792L1473.16 254.133L1480.15 264.743L1490.65 254.133V250.125L1518.64 259.792L1533.95 243.523V231.262L1563.47 228.669L1573.31 219.709V199.432L1585.55 186.229V179.627V161.708V147.09L1577.9 137.894V116.674L1573.31 108.658H1566.53Z" fill="url(#paint4_linear_353_1260)"/>
<path d="M1560.4 67.4597L1540.85 62.5083V50.9552L1518 28.7028L1511.77 36.3369L1504.06 28.7028L1487.8 0H1477.73L1452.95 28.7028C1451.4 28.7028 1447.51 27.2881 1446.6 28.7028L1439.59 36.3369C1435.26 36.3369 1423.85 46.0824 1418.68 50.9552L1389.26 83.7284L1383.84 89.3871C1382.03 94.1027 1379.5 104.005 1383.84 105.892C1389.26 108.249 1406.68 109.9 1412.68 114.851C1418.68 119.803 1424.69 141.023 1418.68 145.031C1413.88 148.237 1409.97 152.34 1408.62 153.99C1410.42 158.156 1414.97 167.288 1418.68 170.495C1422.4 173.702 1429.66 180.476 1432.82 183.463V195.723L1429.53 208.927L1437.46 212.935L1451.02 223.545L1467.67 218.594L1477.73 212.935L1483.93 223.545L1493.22 212.935V208.927L1518 218.594L1531.56 202.325V190.065L1557.69 187.471L1566.41 178.511V158.234L1577.25 145.031V138.429V120.51V105.892L1570.47 96.6962V75.4762L1566.41 67.4597H1560.4Z" fill="url(#paint5_linear_353_1260)"/>
</g>
<g filter="url(#filter24_f_353_1260)">
<ellipse cx="10.7815" cy="4.09893" rx="10.7815" ry="4.09893" transform="matrix(1 0 0 -1 1227.99 519.285)" fill="#62C4CD"/>
</g>
<g filter="url(#filter25_f_353_1260)">
<ellipse cx="10.7815" cy="4.09893" rx="10.7815" ry="4.09893" transform="matrix(1 0 0 -1 725.464 585.146)" fill="#62C4CD"/>
</g>
<g filter="url(#filter26_f_353_1260)">
<ellipse cx="10.7815" cy="4.09893" rx="10.7815" ry="4.09893" transform="matrix(1 0 0 -1 206.464 639.146)" fill="#62C4CD"/>
</g>
<g filter="url(#filter27_f_353_1260)">
<ellipse cx="1370.98" cy="507.855" rx="3.50673" ry="4.40786" fill="#F7F2B2"/>
</g>
<path d="M1325.02 486.61C1325.02 489.3 1326.11 491.569 1327.61 492.279C1327.92 492.429 1328.26 492.51 1328.6 492.51C1328.95 492.51 1329.28 492.429 1329.6 492.279C1331.09 491.569 1332.18 489.3 1332.18 486.61C1332.18 483.352 1330.58 485.118 1328.6 485.118C1326.62 485.118 1325.02 483.352 1325.02 486.61Z" fill="#C8BE70"/>
<path d="M1328.6 492.51C1328.95 492.51 1329.28 492.429 1329.6 492.279C1329.2 493.571 1328.64 496.709 1329.6 498.93H1328.6C1328.34 497.966 1327.77 495.287 1327.61 492.279C1327.92 492.429 1328.26 492.51 1328.6 492.51Z" fill="#689075"/>
<g filter="url(#filter28_f_353_1260)">
<ellipse cx="1210.47" cy="479.351" rx="5.39073" ry="1.76314" fill="#B4D6BC"/>
</g>
<g filter="url(#filter29_f_353_1260)">
<ellipse cx="707.943" cy="545.212" rx="5.39073" ry="1.76314" fill="#B4D6BC"/>
</g>
<g filter="url(#filter30_f_353_1260)">
<ellipse cx="188.943" cy="599.212" rx="5.39073" ry="1.76314" fill="#B4D6BC"/>
</g>
<g filter="url(#filter31_f_353_1260)">
<ellipse cx="1317.61" cy="527.543" rx="5.39073" ry="1.76314" fill="#B4D6BC"/>
</g>
<g filter="url(#filter32_f_353_1260)">
<ellipse cx="1294.02" cy="489.342" rx="5.39073" ry="1.76314" fill="#B4D6BC"/>
</g>
<g filter="url(#filter33_f_353_1260)">
<path d="M1383.81 440.701C1382.46 438.15 1380.07 434.801 1381.27 441.809C1382.65 443.59 1385.1 445.86 1383.81 440.701Z" fill="#84EEEC"/>
<path d="M1388.43 440.701C1387.18 440.297 1384.85 440.116 1385.54 442.615C1386.4 445.739 1390.63 440.823 1388.43 440.701Z" fill="#84EEEC"/>
<path d="M1390.28 445.739C1387.2 445.437 1382.52 445.518 1388.43 448.259C1390.43 448.595 1393.61 448.561 1390.28 445.739Z" fill="#84EEEC"/>
<path d="M1382.77 451.685C1382.92 449.905 1382.38 446.505 1378.96 447.15C1374.68 447.957 1381.61 453.096 1382.77 451.685Z" fill="#84EEEC"/>
<path d="M1390.28 450.778C1388.2 450.98 1384.73 452.129 1387.51 455.112C1389.05 455.385 1391.76 454.902 1390.28 450.778Z" fill="#84EEEC"/>
<path d="M1385.54 453.902C1385.16 457.631 1385.2 465.895 1388.43 469.12C1389.01 466.466 1389.24 459.707 1385.54 453.902Z" fill="#4B7864"/>
</g>
<g filter="url(#filter34_f_353_1260)">
<path d="M1426.26 482.428C1424.91 479.878 1422.52 476.528 1423.72 483.537C1425.11 485.317 1427.56 487.588 1426.26 482.428Z" fill="#84EEEC"/>
<path d="M1430.88 482.428C1429.63 482.025 1427.31 481.844 1428 484.343C1428.86 487.467 1433.08 482.551 1430.88 482.428Z" fill="#84EEEC"/>
<path d="M1432.73 487.467C1429.65 487.165 1424.97 487.245 1430.88 489.987C1432.89 490.322 1436.06 490.289 1432.73 487.467Z" fill="#84EEEC"/>
<path d="M1425.22 493.413C1425.38 491.633 1424.83 488.233 1421.41 488.878C1417.13 489.684 1424.07 494.824 1425.22 493.413Z" fill="#84EEEC"/>
<path d="M1432.73 492.506C1430.65 492.708 1427.19 493.856 1429.96 496.839C1431.5 497.113 1434.21 496.629 1432.73 492.506Z" fill="#84EEEC"/>
<path d="M1428 495.63C1427.61 499.359 1427.65 507.623 1430.88 510.847C1431.46 508.194 1431.69 501.435 1428 495.63Z" fill="#4B7864"/>
</g>
<defs>
<filter id="filter0_n_353_1260" x="0" y="377.676" width="1557.81" height="440.324" filterUnits="userSpaceOnUse" color-interpolation-filters="sRGB">
<feFlood flood-opacity="0" result="BackgroundImageFix"/>
<feBlend mode="normal" in="SourceGraphic" in2="BackgroundImageFix" result="shape"/>
<feTurbulence type="fractalNoise" baseFrequency="2.5 2.5" stitchTiles="stitch" numOctaves="3" result="noise" seed="7043" />
<feColorMatrix in="noise" type="luminanceToAlpha" result="alphaNoise" />
<feComponentTransfer in="alphaNoise" result="coloredNoise1">
<feFuncA type="discrete" tableValues="0 0 0 0 0 0 0 0 0 0 0 0 0 0 0 0 0 0 0 0 1 1 1 1 1 1 1 1 1 1 0 0 0 0 0 0 0 0 0 0 0 0 0 0 0 0 0 0 0 0 0 0 0 0 0 0 0 0 0 0 0 0 0 0 0 0 0 0 0 0 0 0 0 0 0 0 0 0 0 0 0 0 0 0 0 0 0 0 0 0 0 0 0 0 0 0 0 0 0 0 "/>
</feComponentTransfer>
<feComposite operator="in" in2="shape" in="coloredNoise1" result="noise1Clipped" />
<feFlood flood-color="#9DB66B" result="color1Flood" />
<feComposite operator="in" in2="noise1Clipped" in="color1Flood" result="color1" />
<feMerge result="effect1_noise_353_1260">
<feMergeNode in="shape" />
<feMergeNode in="color1" />
</feMerge>
</filter>
<filter id="filter1_f_353_1260" x="1264.82" y="372.308" width="302.718" height="144.904" filterUnits="userSpaceOnUse" color-interpolation-filters="sRGB">
<feFlood flood-opacity="0" result="BackgroundImageFix"/>
<feBlend mode="normal" in="SourceGraphic" in2="BackgroundImageFix" result="shape"/>
<feGaussianBlur stdDeviation="12.6754" result="effect1_foregroundBlur_353_1260"/>
</filter>
<filter id="filter2_f_353_1260" x="1086.65" y="428.715" width="29.3037" height="15.9391" filterUnits="userSpaceOnUse" color-interpolation-filters="sRGB">
<feFlood flood-opacity="0" result="BackgroundImageFix"/>
<feBlend mode="normal" in="SourceGraphic" in2="BackgroundImageFix" result="shape"/>
<feGaussianBlur stdDeviation="1.93529" result="effect1_foregroundBlur_353_1260"/>
</filter>
<filter id="filter3_f_353_1260" x="584.129" y="494.576" width="29.3037" height="15.9391" filterUnits="userSpaceOnUse" color-interpolation-filters="sRGB">
<feFlood flood-opacity="0" result="BackgroundImageFix"/>
<feBlend mode="normal" in="SourceGraphic" in2="BackgroundImageFix" result="shape"/>
<feGaussianBlur stdDeviation="1.93529" result="effect1_foregroundBlur_353_1260"/>
</filter>
<filter id="filter4_f_353_1260" x="65.1294" y="548.576" width="29.3037" height="15.9391" filterUnits="userSpaceOnUse" color-interpolation-filters="sRGB">
<feFlood flood-opacity="0" result="BackgroundImageFix"/>
<feBlend mode="normal" in="SourceGraphic" in2="BackgroundImageFix" result="shape"/>
<feGaussianBlur stdDeviation="1.93529" result="effect1_foregroundBlur_353_1260"/>
</filter>
<filter id="filter5_f_353_1260" x="1022.54" y="480.098" width="29.3037" height="15.9391" filterUnits="userSpaceOnUse" color-interpolation-filters="sRGB">
<feFlood flood-opacity="0" result="BackgroundImageFix"/>
<feBlend mode="normal" in="SourceGraphic" in2="BackgroundImageFix" result="shape"/>
<feGaussianBlur stdDeviation="1.93529" result="effect1_foregroundBlur_353_1260"/>
</filter>
<filter id="filter6_f_353_1260" x="1227.08" y="422.022" width="12.8607" height="14.6627" filterUnits="userSpaceOnUse" color-interpolation-filters="sRGB">
<feFlood flood-opacity="0" result="BackgroundImageFix"/>
<feBlend mode="normal" in="SourceGraphic" in2="BackgroundImageFix" result="shape"/>
<feGaussianBlur stdDeviation="1.21471" result="effect1_foregroundBlur_353_1260"/>
</filter>
<filter id="filter7_f_353_1260" x="724.562" y="487.883" width="12.8607" height="14.6627" filterUnits="userSpaceOnUse" color-interpolation-filters="sRGB">
<feFlood flood-opacity="0" result="BackgroundImageFix"/>
<feBlend mode="normal" in="SourceGraphic" in2="BackgroundImageFix" result="shape"/>
<feGaussianBlur stdDeviation="1.21471" result="effect1_foregroundBlur_353_1260"/>
</filter>
<filter id="filter8_f_353_1260" x="205.562" y="541.883" width="12.8607" height="14.6627" filterUnits="userSpaceOnUse" color-interpolation-filters="sRGB">
<feFlood flood-opacity="0" result="BackgroundImageFix"/>
<feBlend mode="normal" in="SourceGraphic" in2="BackgroundImageFix" result="shape"/>
<feGaussianBlur stdDeviation="1.21471" result="effect1_foregroundBlur_353_1260"/>
</filter>
<filter id="filter9_f_353_1260" x="898.552" y="473.405" width="12.8607" height="14.6627" filterUnits="userSpaceOnUse" color-interpolation-filters="sRGB">
<feFlood flood-opacity="0" result="BackgroundImageFix"/>
<feBlend mode="normal" in="SourceGraphic" in2="BackgroundImageFix" result="shape"/>
<feGaussianBlur stdDeviation="1.21471" result="effect1_foregroundBlur_353_1260"/>
</filter>
<filter id="filter10_f_353_1260" x="1061.39" y="392.868" width="23.2165" height="15.9615" filterUnits="userSpaceOnUse" color-interpolation-filters="sRGB">
<feFlood flood-opacity="0" result="BackgroundImageFix"/>
<feBlend mode="normal" in="SourceGraphic" in2="BackgroundImageFix" result="shape"/>
<feGaussianBlur stdDeviation="0.823529" result="effect1_foregroundBlur_353_1260"/>
</filter>
<filter id="filter11_f_353_1260" x="1053.89" y="444.251" width="23.2165" height="15.9615" filterUnits="userSpaceOnUse" color-interpolation-filters="sRGB">
<feFlood flood-opacity="0" result="BackgroundImageFix"/>
<feBlend mode="normal" in="SourceGraphic" in2="BackgroundImageFix" result="shape"/>
<feGaussianBlur stdDeviation="0.823529" result="effect1_foregroundBlur_353_1260"/>
</filter>
<filter id="filter12_f_353_1260" x="1168.54" y="441.06" width="23.2165" height="15.9615" filterUnits="userSpaceOnUse" color-interpolation-filters="sRGB">
<feFlood flood-opacity="0" result="BackgroundImageFix"/>
<feBlend mode="normal" in="SourceGraphic" in2="BackgroundImageFix" result="shape"/>
<feGaussianBlur stdDeviation="0.823529" result="effect1_foregroundBlur_353_1260"/>
</filter>
<filter id="filter13_f_353_1260" x="666.013" y="506.922" width="23.2165" height="15.9615" filterUnits="userSpaceOnUse" color-interpolation-filters="sRGB">
<feFlood flood-opacity="0" result="BackgroundImageFix"/>
<feBlend mode="normal" in="SourceGraphic" in2="BackgroundImageFix" result="shape"/>
<feGaussianBlur stdDeviation="0.823529" result="effect1_foregroundBlur_353_1260"/>
</filter>
<filter id="filter14_f_353_1260" x="147.013" y="560.922" width="23.2165" height="15.9615" filterUnits="userSpaceOnUse" color-interpolation-filters="sRGB">
<feFlood flood-opacity="0" result="BackgroundImageFix"/>
<feBlend mode="normal" in="SourceGraphic" in2="BackgroundImageFix" result="shape"/>
<feGaussianBlur stdDeviation="0.823529" result="effect1_foregroundBlur_353_1260"/>
</filter>
<filter id="filter15_f_353_1260" x="946.745" y="492.444" width="23.2165" height="15.9615" filterUnits="userSpaceOnUse" color-interpolation-filters="sRGB">
<feFlood flood-opacity="0" result="BackgroundImageFix"/>
<feBlend mode="normal" in="SourceGraphic" in2="BackgroundImageFix" result="shape"/>
<feGaussianBlur stdDeviation="0.823529" result="effect1_foregroundBlur_353_1260"/>
</filter>
<filter id="filter16_f_353_1260" x="1144.95" y="402.859" width="23.2165" height="15.9615" filterUnits="userSpaceOnUse" color-interpolation-filters="sRGB">
<feFlood flood-opacity="0" result="BackgroundImageFix"/>
<feBlend mode="normal" in="SourceGraphic" in2="BackgroundImageFix" result="shape"/>
<feGaussianBlur stdDeviation="0.823529" result="effect1_foregroundBlur_353_1260"/>
</filter>
<filter id="filter17_f_353_1260" x="123.428" y="522.72" width="23.2165" height="15.9615" filterUnits="userSpaceOnUse" color-interpolation-filters="sRGB">
<feFlood flood-opacity="0" result="BackgroundImageFix"/>
<feBlend mode="normal" in="SourceGraphic" in2="BackgroundImageFix" result="shape"/>
<feGaussianBlur stdDeviation="0.823529" result="effect1_foregroundBlur_353_1260"/>
</filter>
<filter id="filter18_f_353_1260" x="970.33" y="454.242" width="23.2165" height="15.9615" filterUnits="userSpaceOnUse" color-interpolation-filters="sRGB">
<feFlood flood-opacity="0" result="BackgroundImageFix"/>
<feBlend mode="normal" in="SourceGraphic" in2="BackgroundImageFix" result="shape"/>
<feGaussianBlur stdDeviation="0.823529" result="effect1_foregroundBlur_353_1260"/>
</filter>
<filter id="filter19_f_353_1260" x="1239.58" y="358.586" width="15.221" height="32.5673" filterUnits="userSpaceOnUse" color-interpolation-filters="sRGB">
<feFlood flood-opacity="0" result="BackgroundImageFix"/>
<feBlend mode="normal" in="SourceGraphic" in2="BackgroundImageFix" result="shape"/>
<feGaussianBlur stdDeviation="0.267647" result="effect1_foregroundBlur_353_1260"/>
</filter>
<filter id="filter20_f_353_1260" x="883.695" y="409.969" width="15.221" height="32.5673" filterUnits="userSpaceOnUse" color-interpolation-filters="sRGB">
<feFlood flood-opacity="0" result="BackgroundImageFix"/>
<feBlend mode="normal" in="SourceGraphic" in2="BackgroundImageFix" result="shape"/>
<feGaussianBlur stdDeviation="0.267647" result="effect1_foregroundBlur_353_1260"/>
</filter>
<filter id="filter21_f_353_1260" x="1282.03" y="400.313" width="15.221" height="32.5673" filterUnits="userSpaceOnUse" color-interpolation-filters="sRGB">
<feFlood flood-opacity="0" result="BackgroundImageFix"/>
<feBlend mode="normal" in="SourceGraphic" in2="BackgroundImageFix" result="shape"/>
<feGaussianBlur stdDeviation="0.267647" result="effect1_foregroundBlur_353_1260"/>
</filter>
<filter id="filter22_f_353_1260" x="841.243" y="451.697" width="15.221" height="32.5673" filterUnits="userSpaceOnUse" color-interpolation-filters="sRGB">
<feFlood flood-opacity="0" result="BackgroundImageFix"/>
<feBlend mode="normal" in="SourceGraphic" in2="BackgroundImageFix" result="shape"/>
<feGaussianBlur stdDeviation="0.267647" result="effect1_foregroundBlur_353_1260"/>
</filter>
<filter id="filter23_n_353_1260" x="1322" y="0" width="263.554" height="466.13" filterUnits="userSpaceOnUse" color-interpolation-filters="sRGB">
<feFlood flood-opacity="0" result="BackgroundImageFix"/>
<feBlend mode="normal" in="SourceGraphic" in2="BackgroundImageFix" result="shape"/>
<feTurbulence type="fractalNoise" baseFrequency="16.813413619995117 16.813413619995117" stitchTiles="stitch" numOctaves="3" result="noise" seed="9678" />
<feColorMatrix in="noise" type="luminanceToAlpha" result="alphaNoise" />
<feComponentTransfer in="alphaNoise" result="coloredNoise1">
<feFuncA type="discrete" tableValues="1 1 1 1 1 1 1 1 1 1 1 1 1 1 1 1 1 1 1 1 1 1 1 1 1 1 1 1 1 1 1 1 1 1 1 1 1 1 1 1 1 1 1 1 1 1 1 1 1 1 1 0 0 0 0 0 0 0 0 0 0 0 0 0 0 0 0 0 0 0 0 0 0 0 0 0 0 0 0 0 0 0 0 0 0 0 0 0 0 0 0 0 0 0 0 0 0 0 0 0 "/>
</feComponentTransfer>
<feComposite operator="in" in2="shape" in="coloredNoise1" result="noise1Clipped" />
<feFlood flood-color="rgba(0, 0, 0, 0.25)" result="color1Flood" />
<feComposite operator="in" in2="noise1Clipped" in="color1Flood" result="color1" />
<feMerge result="effect1_noise_353_1260">
<feMergeNode in="shape" />
<feMergeNode in="color1" />
</feMerge>
</filter>
<filter id="filter24_f_353_1260" x="1224.12" y="507.217" width="29.3037" height="15.9391" filterUnits="userSpaceOnUse" color-interpolation-filters="sRGB">
<feFlood flood-opacity="0" result="BackgroundImageFix"/>
<feBlend mode="normal" in="SourceGraphic" in2="BackgroundImageFix" result="shape"/>
<feGaussianBlur stdDeviation="1.93529" result="effect1_foregroundBlur_353_1260"/>
</filter>
<filter id="filter25_f_353_1260" x="721.593" y="573.078" width="29.3037" height="15.9391" filterUnits="userSpaceOnUse" color-interpolation-filters="sRGB">
<feFlood flood-opacity="0" result="BackgroundImageFix"/>
<feBlend mode="normal" in="SourceGraphic" in2="BackgroundImageFix" result="shape"/>
<feGaussianBlur stdDeviation="1.93529" result="effect1_foregroundBlur_353_1260"/>
</filter>
<filter id="filter26_f_353_1260" x="202.593" y="627.078" width="29.3037" height="15.9391" filterUnits="userSpaceOnUse" color-interpolation-filters="sRGB">
<feFlood flood-opacity="0" result="BackgroundImageFix"/>
<feBlend mode="normal" in="SourceGraphic" in2="BackgroundImageFix" result="shape"/>
<feGaussianBlur stdDeviation="1.93529" result="effect1_foregroundBlur_353_1260"/>
</filter>
<filter id="filter27_f_353_1260" x="1364.55" y="500.523" width="12.8607" height="14.6627" filterUnits="userSpaceOnUse" color-interpolation-filters="sRGB">
<feFlood flood-opacity="0" result="BackgroundImageFix"/>
<feBlend mode="normal" in="SourceGraphic" in2="BackgroundImageFix" result="shape"/>
<feGaussianBlur stdDeviation="1.21471" result="effect1_foregroundBlur_353_1260"/>
</filter>
<filter id="filter28_f_353_1260" x="1198.86" y="471.37" width="23.2165" height="15.9615" filterUnits="userSpaceOnUse" color-interpolation-filters="sRGB">
<feFlood flood-opacity="0" result="BackgroundImageFix"/>
<feBlend mode="normal" in="SourceGraphic" in2="BackgroundImageFix" result="shape"/>
<feGaussianBlur stdDeviation="0.823529" result="effect1_foregroundBlur_353_1260"/>
</filter>
<filter id="filter29_f_353_1260" x="696.335" y="537.231" width="23.2165" height="15.9615" filterUnits="userSpaceOnUse" color-interpolation-filters="sRGB">
<feFlood flood-opacity="0" result="BackgroundImageFix"/>
<feBlend mode="normal" in="SourceGraphic" in2="BackgroundImageFix" result="shape"/>
<feGaussianBlur stdDeviation="0.823529" result="effect1_foregroundBlur_353_1260"/>
</filter>
<filter id="filter30_f_353_1260" x="177.335" y="591.231" width="23.2165" height="15.9615" filterUnits="userSpaceOnUse" color-interpolation-filters="sRGB">
<feFlood flood-opacity="0" result="BackgroundImageFix"/>
<feBlend mode="normal" in="SourceGraphic" in2="BackgroundImageFix" result="shape"/>
<feGaussianBlur stdDeviation="0.823529" result="effect1_foregroundBlur_353_1260"/>
</filter>
<filter id="filter31_f_353_1260" x="1306" y="519.562" width="23.2165" height="15.9615" filterUnits="userSpaceOnUse" color-interpolation-filters="sRGB">
<feFlood flood-opacity="0" result="BackgroundImageFix"/>
<feBlend mode="normal" in="SourceGraphic" in2="BackgroundImageFix" result="shape"/>
<feGaussianBlur stdDeviation="0.823529" result="effect1_foregroundBlur_353_1260"/>
</filter>
<filter id="filter32_f_353_1260" x="1282.41" y="481.361" width="23.2165" height="15.9615" filterUnits="userSpaceOnUse" color-interpolation-filters="sRGB">
<feFlood flood-opacity="0" result="BackgroundImageFix"/>
<feBlend mode="normal" in="SourceGraphic" in2="BackgroundImageFix" result="shape"/>
<feGaussianBlur stdDeviation="0.823529" result="effect1_foregroundBlur_353_1260"/>
</filter>
<filter id="filter33_f_353_1260" x="1377.04" y="437.088" width="15.221" height="32.5673" filterUnits="userSpaceOnUse" color-interpolation-filters="sRGB">
<feFlood flood-opacity="0" result="BackgroundImageFix"/>
<feBlend mode="normal" in="SourceGraphic" in2="BackgroundImageFix" result="shape"/>
<feGaussianBlur stdDeviation="0.267647" result="effect1_foregroundBlur_353_1260"/>
</filter>
<filter id="filter34_f_353_1260" x="1419.5" y="478.815" width="15.221" height="32.5673" filterUnits="userSpaceOnUse" color-interpolation-filters="sRGB">
<feFlood flood-opacity="0" result="BackgroundImageFix"/>
<feBlend mode="normal" in="SourceGraphic" in2="BackgroundImageFix" result="shape"/>
<feGaussianBlur stdDeviation="0.267647" result="effect1_foregroundBlur_353_1260"/>
</filter>
<radialGradient id="paint0_radial_353_1260" cx="0" cy="0" r="1" gradientTransform="matrix(280.655 358.254 1207.57 -719.635 948.149 459.033)" gradientUnits="userSpaceOnUse">
<stop stop-color="#AFBE88"/>
<stop offset="0.639066" stop-color="#89A477"/>
</radialGradient>
<linearGradient id="paint1_linear_353_1260" x1="1491.26" y1="362.381" x2="1178.43" y2="312.311" gradientUnits="userSpaceOnUse">
<stop stop-color="#593E37"/>
<stop offset="0.0913595" stop-color="#765B49"/>
<stop offset="0.216362" stop-color="#C6AB76"/>
</linearGradient>
<linearGradient id="paint2_linear_353_1260" x1="1432.58" y1="157.001" x2="1137.72" y2="295.849" gradientUnits="userSpaceOnUse">
<stop stop-color="#92D79E"/>
<stop offset="1" stop-color="#4D7153"/>
</linearGradient>
<linearGradient id="paint3_linear_353_1260" x1="1450.72" y1="112.736" x2="1156.23" y2="251.134" gradientUnits="userSpaceOnUse">
<stop stop-color="#92D79E"/>
<stop offset="1" stop-color="#4D7153"/>
</linearGradient>
<linearGradient id="paint4_linear_353_1260" x1="1474.97" y1="73.2907" x2="1180.11" y2="212.138" gradientUnits="userSpaceOnUse">
<stop stop-color="#92D79E"/>
<stop offset="1" stop-color="#4D7153"/>
</linearGradient>
<linearGradient id="paint5_linear_353_1260" x1="1479.34" y1="32.0926" x2="1207.62" y2="145.377" gradientUnits="userSpaceOnUse">
<stop stop-color="#92D79E"/>
<stop offset="1" stop-color="#4D7153"/>
</linearGradient>
</defs>
</svg>
